<svg width="56" height="52" viewBox="0 0 56 52" fill="none" xmlns="http://www.w3.org/2000/svg">
<path d="M18.8056 14.3574C31.2772 12.531 42.0267 15.1586 42.7666 20.2133C42.9942 21.7674 42.3877 24.3851 39.9285 26.6486C37.9719 28.4492 33.4315 31.1772 24.9995 29.2194C24.8747 29.1904 24.7498 29.268 24.7205 29.3931C24.6921 29.5178 24.7681 29.6433 24.8948 29.6721C33.5349 31.6791 38.2199 28.8536 40.2434 26.9907C42.3774 25.0265 43.5486 22.3397 43.2273 20.1462C42.4475 14.8367 31.4638 12.0339 18.7382 13.8971C10.8081 15.0592 3.15466 19.4069 1.31351 23.796C1.27232 23.8948 1.30416 24.0058 1.38475 24.0688C1.40087 24.0813 1.4187 24.0917 1.43825 24.0999C1.55666 24.15 1.69316 24.0938 1.74254 23.9755C3.49648 19.7931 11.1511 15.4787 18.8056 14.3574Z" stroke="white"/>
<path d="M37.4283 37.6801C45.3587 36.5183 53.0126 32.1709 54.8531 27.7825C54.9029 27.6645 54.8487 27.5277 54.7287 27.4782C54.6103 27.4288 54.4741 27.4846 54.4244 27.6027C52.6704 31.7844 45.0161 36.099 37.3609 37.2205C31.287 38.1103 25.4382 37.9737 20.8909 36.8378C16.4127 35.7193 13.7526 33.7755 13.3993 31.3646C13.1717 29.8106 13.7785 27.1924 16.2386 24.9286C18.1948 23.1276 22.7353 20.3997 31.1658 22.3586C31.2908 22.3873 31.4157 22.3097 31.4448 22.1849C31.4738 22.0595 31.3955 21.9346 31.2711 21.9058C22.6317 19.8987 17.9469 22.7239 15.9231 24.5871C13.7892 26.5513 12.6176 29.2385 12.9393 31.4323C13.123 32.6884 13.8628 33.8209 15.1013 34.7885C16.4372 35.8322 18.3535 36.6834 20.7779 37.2898C25.3831 38.4391 31.2958 38.5785 37.4283 37.6801Z" stroke="white"/>
</svg>
