<svg width="41" height="35" viewBox="0 0 41 35" fill="none" xmlns="http://www.w3.org/2000/svg">
<path fill-rule="evenodd" clip-rule="evenodd" d="M14.4854 30.4414C17.2984 33.0541 20.9963 34.5047 24.8354 34.5014C32.9945 34.5007 39.7075 28.0781 40.069 19.9271C40.4305 11.7761 34.3124 4.78449 26.1854 4.06144C21.2957 -0.467057 14.0316 -1.29574 8.24751 2.01508C2.46342 5.32589 -0.50075 12.0092 0.927754 18.5189C2.35626 25.0287 7.8465 29.8567 14.4854 30.4414ZM32.1435 30.8517C27.4536 33.8274 21.4339 33.6892 16.8854 30.5014V30.4614C22.524 30.0808 27.4881 26.6092 29.7805 21.4436C32.0728 16.2781 31.3163 10.2679 27.8154 5.83144C33.2324 7.05882 37.379 11.4248 38.3258 16.8978C39.2725 22.3709 36.8335 27.876 32.1435 30.8517ZM15.1354 28.9814H15.8354C21.4006 28.985 26.4183 25.6312 28.5432 20.4876C30.6681 15.3441 29.4805 9.42673 25.5354 5.50144H24.8354C19.2702 5.49789 14.2525 8.8517 12.1276 13.9952C10.0028 19.1388 11.1904 25.0561 15.1354 28.9814ZM2.16283 13.7424C2.9324 6.77268 8.82336 1.49855 15.8354 1.50144C18.6855 1.49801 21.4653 2.38614 23.7854 4.04144C18.1433 4.41524 13.1727 7.88417 10.8756 13.0511C8.5785 18.218 9.33309 24.2322 12.8354 28.6714C5.99165 27.1444 1.39326 20.7121 2.16283 13.7424Z" fill="white"/>
</svg>
