<svg xmlns="http://www.w3.org/2000/svg" viewBox="0 0 254.01 53.19">
    <defs>
        <style>.cls-1{fill:white;}</style>
    </defs>
    <g id="Layer_2" data-name="Layer 2">
        <g id="Layer_1-2" data-name="Layer 1">
            <path class="cls-1" d="M92,8.88V37.67H86.7V34.51a7,7,0,0,1-6.63,3.64,8.8,8.8,0,0,1-4.64-1.3A9.48,9.48,0,0,1,72,33.11a11.88,11.88,0,0,1-1.32-5.75,12.83,12.83,0,0,1,1.24-5.86,8.66,8.66,0,0,1,7.92-5,7.55,7.55,0,0,1,6.27,2.76V8.88ZM84.78,31.82a7.1,7.1,0,0,0,1.28-4.46,7.16,7.16,0,0,0-1.28-4.48,4,4,0,0,0-3.35-1.68A4.15,4.15,0,0,0,78,22.88a7.1,7.1,0,0,0-1.3,4.48A7,7,0,0,0,78,31.8a4.18,4.18,0,0,0,3.44,1.67A4,4,0,0,0,84.78,31.82Z" />
            <path class="cls-1" d="M95.78,13.26a3.32,3.32,0,0,1-1-2.42,3.21,3.21,0,0,1,1-2.36,3.36,3.36,0,0,1,2.48-1,3.3,3.3,0,0,1,2.44,1,3.21,3.21,0,0,1,1,2.36,3.32,3.32,0,0,1-1,2.42,3.28,3.28,0,0,1-2.44,1A3.34,3.34,0,0,1,95.78,13.26ZM95.26,17h6V37.67h-6Z" />
            <path class="cls-1" d="M125.77,17V36.59a8.78,8.78,0,0,1-2.57,6.56c-1.72,1.68-4.36,2.52-7.9,2.52s-6.22-.64-7.78-1.92a7.83,7.83,0,0,1-2.74-5.4H111a3.12,3.12,0,0,0,1.1,2.32,4.91,4.91,0,0,0,3.14.8,4.56,4.56,0,0,0,3.4-1.18,4.8,4.8,0,0,0,1.16-3.5v-3A6.08,6.08,0,0,1,117.28,36a8.63,8.63,0,0,1-3.62.68A9.05,9.05,0,0,1,109,35.47a8.83,8.83,0,0,1-3.36-3.54,11,11,0,0,1-1.24-5.33,11,11,0,0,1,1.24-5.34A8.63,8.63,0,0,1,109,17.74a9.4,9.4,0,0,1,4.74-1.22,8.25,8.25,0,0,1,3.86.88,7.06,7.06,0,0,1,2.78,2.6V17Zm-7.29,13.54a5.88,5.88,0,0,0,1.34-4,5.65,5.65,0,0,0-1.34-3.9,4.54,4.54,0,0,0-6.74,0,5.74,5.74,0,0,0-1.32,3.94,5.76,5.76,0,0,0,1.34,4,4.47,4.47,0,0,0,6.72,0Z" />
            <path class="cls-1" d="M129.53,13.26a3.32,3.32,0,0,1-1-2.42,3.21,3.21,0,0,1,1-2.36,3.36,3.36,0,0,1,2.48-1,3.3,3.3,0,0,1,2.44,1,3.21,3.21,0,0,1,1,2.36,3.32,3.32,0,0,1-1,2.42,3.28,3.28,0,0,1-2.44,1A3.34,3.34,0,0,1,129.53,13.26ZM129,17h6V37.67h-6Z" />
            <path class="cls-1" d="M146.85,21.84v8.32a2.93,2.93,0,0,0,.66,2.09,2.64,2.64,0,0,0,2,.7,9.25,9.25,0,0,0,1.64-.12v4.76a9.23,9.23,0,0,1-1.42.26q-.62.06-1.74.06-7.12,0-7.12-7.55V21.84h-3.16V17h3.16V11.16h6V17h4.32v4.84Z" />
            <path class="cls-1" d="M169.86,18.44c1.62,1.28,2.42,3.22,2.42,5.84V37.67H167v-2.6a7.65,7.65,0,0,1-6.51,3.08,9,9,0,0,1-3.94-.8,6.16,6.16,0,0,1-2.64-2.22A5.58,5.58,0,0,1,153,32a5.76,5.76,0,0,1,1.78-4.37c1.18-1.14,3.07-1.82,5.66-2.06l6-.6v-1a3,3,0,0,0-.9-2.38,3.54,3.54,0,0,0-2.49-.82,4.15,4.15,0,0,0-2.5.66,3.31,3.31,0,0,0-1.22,2h-6a7,7,0,0,1,2.9-5.08A11.4,11.4,0,0,1,163,16.52Q167.44,16.52,169.86,18.44Zm-4.61,14.63a5.18,5.18,0,0,0,1.07-3.43V28.28l-4.47.6a3.73,3.73,0,0,0-2.2.94,2.46,2.46,0,0,0-.76,1.85,2.4,2.4,0,0,0,.88,1.92,3.4,3.4,0,0,0,2.32.76A3.9,3.9,0,0,0,165.25,33.07Z" />
            <path class="cls-1" d="M181.72,37.67h-6V8.88h6Z" />
            <path class="cls-1" d="M192.93,20.49v11.8a3.29,3.29,0,0,0,.74,2.38,2.71,2.71,0,0,0,2,.74,7.13,7.13,0,0,0,1.6-.14V37.5a8.54,8.54,0,0,1-2,.22,4.78,4.78,0,0,1-3.59-1.32,5.28,5.28,0,0,1-1.28-3.85V20.49h-3.32V18.25h3.32V12.82h2.53v5.43h4.35v2.24Z" />
            <path class="cls-1" d="M227.84,18.25,220.92,37.5H218l-4.84-15.26L208.3,37.5h-2.9l-6.93-19.25h2.65l5.69,16.35L212,18.25h2.27l5.18,16.27,5.69-16.27Z" />
            <path class="cls-1" d="M230.19,14.12a1.84,1.84,0,0,1-.56-1.34,1.87,1.87,0,0,1,.56-1.37,1.94,1.94,0,0,1,2.73,0,1.81,1.81,0,0,1,.58,1.37,1.78,1.78,0,0,1-.58,1.34,1.94,1.94,0,0,1-2.73,0Zm.11,4.13h2.53V37.5H230.3Z" />
            <path class="cls-1" d="M252.11,19.89a8.4,8.4,0,0,1,1.9,5.88V37.5h-2.53V26.22a7,7,0,0,0-1.3-4.56,4.53,4.53,0,0,0-3.69-1.58,5,5,0,0,0-3.91,1.65,6.93,6.93,0,0,0-1.45,4.68V37.5h-2.57V18.25H241V21.2a6.21,6.21,0,0,1,6-3.39A6.59,6.59,0,0,1,252.11,19.89Z" />
        </g>
    </g>
</svg>