<svg width="66" height="65" viewBox="0 0 66 65" fill="none" xmlns="http://www.w3.org/2000/svg">
<path d="M15.289 63V53.298H21.141V54.46H16.647V57.386H20.637V58.534H16.647V63H15.289ZM28.6465 61.824V63H22.8085V53.298H24.1665V61.824H28.6465ZM29.0474 58.142C29.0474 57.3113 29.1687 56.5787 29.4114 55.944C29.6634 55.3093 29.9994 54.782 30.4194 54.362C30.8487 53.9327 31.3434 53.6107 31.9034 53.396C32.4727 53.1813 33.0747 53.074 33.7094 53.074C34.3347 53.074 34.9227 53.1813 35.4734 53.396C36.0334 53.6107 36.5234 53.9327 36.9434 54.362C37.3634 54.782 37.6947 55.3093 37.9374 55.944C38.1894 56.5787 38.3154 57.3113 38.3154 58.142C38.3154 58.9727 38.1894 59.7053 37.9374 60.34C37.6947 60.9747 37.3634 61.5067 36.9434 61.936C36.5234 62.356 36.0334 62.6733 35.4734 62.888C34.9227 63.1027 34.3347 63.21 33.7094 63.21C33.0747 63.21 32.4727 63.1027 31.9034 62.888C31.3434 62.6733 30.8487 62.356 30.4194 61.936C29.9994 61.5067 29.6634 60.9747 29.4114 60.34C29.1687 59.7053 29.0474 58.9727 29.0474 58.142ZM30.4754 58.142C30.4754 58.73 30.55 59.2667 30.6994 59.752C30.8487 60.228 31.0587 60.634 31.3294 60.97C31.6094 61.306 31.9454 61.5673 32.3374 61.754C32.7387 61.9313 33.1867 62.02 33.6814 62.02C34.176 62.02 34.6194 61.9313 35.0114 61.754C35.4034 61.5673 35.7347 61.306 36.0054 60.97C36.2854 60.634 36.5 60.228 36.6494 59.752C36.7987 59.2667 36.8734 58.73 36.8734 58.142C36.8734 57.554 36.7987 57.022 36.6494 56.546C36.5 56.0607 36.2854 55.65 36.0054 55.314C35.7347 54.978 35.4034 54.7213 35.0114 54.544C34.6194 54.3573 34.176 54.264 33.6814 54.264C33.1867 54.264 32.7387 54.3573 32.3374 54.544C31.9454 54.7213 31.6094 54.978 31.3294 55.314C31.0587 55.65 30.8487 56.0607 30.6994 56.546C30.55 57.022 30.4754 57.554 30.4754 58.142ZM45.4231 56.42C45.0311 57.6707 44.6344 58.828 44.2331 59.892C43.8318 60.956 43.4304 61.992 43.0291 63H41.6711C41.1764 61.572 40.7378 60.0647 40.3551 58.478C39.9818 56.8913 39.6318 55.1647 39.3051 53.298H40.7331C40.8638 54.026 40.9991 54.754 41.1391 55.482C41.2791 56.21 41.4238 56.9193 41.5731 57.61C41.7224 58.2913 41.8718 58.9447 42.0211 59.57C42.1704 60.1953 42.3244 60.774 42.4831 61.306C42.8564 60.326 43.2531 59.2527 43.6731 58.086C44.0931 56.91 44.4851 55.6967 44.8491 54.446H46.0251C46.3891 55.6967 46.7858 56.91 47.2151 58.086C47.6444 59.2527 48.0458 60.326 48.4191 61.306C48.5684 60.7833 48.7178 60.2093 48.8671 59.584C49.0164 58.9587 49.1611 58.3053 49.3011 57.624C49.4504 56.9333 49.5951 56.224 49.7351 55.496C49.8751 54.7587 50.0104 54.026 50.1411 53.298H51.5271C51.1911 55.1647 50.8318 56.8913 50.4491 58.478C50.0758 60.0647 49.6464 61.572 49.1611 63H47.8031C47.3924 61.992 46.9911 60.956 46.5991 59.892C46.2071 58.828 45.8151 57.6707 45.4231 56.42Z" fill="white"/>
<circle cx="33.4737" cy="15.4737" r="14.4737" stroke="white" stroke-width="2"/>
<line x1="34.4746" y1="19.8947" x2="34.4746" y2="42" stroke="white" stroke-width="2"/>
</svg>
