<svg width="50" height="50" viewBox="0 0 50 50" fill="none" xmlns="http://www.w3.org/2000/svg">
<rect width="50" height="50" fill="white"/>
<path d="M47.5913 5H2.41856C0.750251 5 0 5.75025 0 7.41856V10.8144C0 12.4827 0.750251 13.233 2.41856 13.233H20.0395V22.3347H7.37414C5.70583 22.3347 4.95558 23.0849 4.95558 24.7532V28.1491C4.95558 29.8174 5.70583 30.5676 7.37414 30.5676H20.0395V42.8973C20.0395 44.5657 20.7897 45.3159 22.458 45.3159H27.542C29.2103 45.3159 29.9605 44.5657 29.9605 42.8973V30.5676H42.6259C44.2942 30.5676 45.0444 29.8174 45.0444 28.1491V24.7532C45.0444 23.0849 44.2942 22.3347 42.6259 22.3347H29.9605V13.2428H47.5814C49.2498 13.2428 50 12.4926 50 10.8243V7.41856C50 5.75025 49.2498 5 47.5814 5H47.5913Z" fill="black"/>
</svg>
