<svg width="66" height="62" viewBox="0 0 66 62" fill="none" xmlns="http://www.w3.org/2000/svg">
<path d="M19.3926 48.226H20.7506V52.762C20.6386 52.7993 20.4753 52.8413 20.2606 52.888C20.0553 52.9347 19.8126 52.9813 19.5326 53.028C19.2619 53.0747 18.9633 53.112 18.6366 53.14C18.3099 53.1773 17.9786 53.196 17.6426 53.196C16.9613 53.196 16.3406 53.084 15.7806 52.86C15.2206 52.636 14.7399 52.3093 14.3386 51.88C13.9373 51.4507 13.6246 50.9233 13.4006 50.298C13.1859 49.6727 13.0786 48.954 13.0786 48.142C13.0786 47.33 13.1999 46.6113 13.4426 45.986C13.6946 45.3513 14.0306 44.8193 14.4506 44.39C14.8706 43.9607 15.3606 43.634 15.9206 43.41C16.4899 43.186 17.0966 43.074 17.7406 43.074C18.1793 43.074 18.5666 43.102 18.9026 43.158C19.2479 43.214 19.5419 43.2793 19.7846 43.354C20.0273 43.4287 20.2233 43.5033 20.3726 43.578C20.5313 43.6527 20.6386 43.7087 20.6946 43.746L20.2606 44.88C19.9899 44.7027 19.6306 44.558 19.1826 44.446C18.7346 44.3247 18.2773 44.264 17.8106 44.264C17.3159 44.264 16.8633 44.3527 16.4526 44.53C16.0513 44.7073 15.7059 44.964 15.4166 45.3C15.1366 45.636 14.9173 46.0467 14.7586 46.532C14.5999 47.008 14.5206 47.5447 14.5206 48.142C14.5206 48.7207 14.5859 49.248 14.7166 49.724C14.8566 50.2 15.0619 50.6107 15.3326 50.956C15.6126 51.292 15.9533 51.5533 16.3546 51.74C16.7653 51.9267 17.2459 52.02 17.7966 52.02C18.1886 52.02 18.5199 52.0013 18.7906 51.964C19.0706 51.9173 19.2713 51.8753 19.3926 51.838V48.226ZM28.7149 51.824V53H22.8769V43.298H24.2349V51.824H28.7149ZM37.0151 53C36.8564 52.58 36.7071 52.1693 36.5671 51.768C36.4271 51.3573 36.2824 50.942 36.1331 50.522H31.7371L30.8551 53H29.4411C29.8144 51.9733 30.1644 51.026 30.4911 50.158C30.8178 49.2807 31.1351 48.45 31.4431 47.666C31.7604 46.882 32.0731 46.1353 32.3811 45.426C32.6891 44.7073 33.0111 43.998 33.3471 43.298H34.5931C34.9291 43.998 35.2511 44.7073 35.5591 45.426C35.8671 46.1353 36.1751 46.882 36.4831 47.666C36.8004 48.45 37.1224 49.2807 37.4491 50.158C37.7758 51.026 38.1258 51.9733 38.4991 53H37.0151ZM35.7411 49.402C35.4424 48.59 35.1438 47.806 34.8451 47.05C34.5558 46.2847 34.2524 45.552 33.9351 44.852C33.6084 45.552 33.2958 46.2847 32.9971 47.05C32.7078 47.806 32.4184 48.59 32.1291 49.402H35.7411ZM42.2891 52.034C43.7077 52.034 44.4171 51.5487 44.4171 50.578C44.4171 50.2793 44.3517 50.0273 44.2211 49.822C44.0997 49.6073 43.9317 49.4253 43.7171 49.276C43.5024 49.1173 43.2551 48.982 42.9751 48.87C42.7044 48.758 42.4151 48.646 42.1071 48.534C41.7524 48.4127 41.4164 48.2773 41.0991 48.128C40.7817 47.9693 40.5064 47.7873 40.2731 47.582C40.0397 47.3673 39.8531 47.1153 39.7131 46.826C39.5824 46.5367 39.5171 46.1867 39.5171 45.776C39.5171 44.9267 39.8064 44.264 40.3851 43.788C40.9637 43.312 41.7617 43.074 42.7791 43.074C43.3671 43.074 43.8991 43.1393 44.3751 43.27C44.8604 43.3913 45.2151 43.5267 45.4391 43.676L45.0051 44.782C44.8091 44.6607 44.5151 44.544 44.1231 44.432C43.7404 44.3107 43.2924 44.25 42.7791 44.25C42.5177 44.25 42.2751 44.278 42.0511 44.334C41.8271 44.39 41.6311 44.474 41.4631 44.586C41.2951 44.698 41.1597 44.8427 41.0571 45.02C40.9637 45.188 40.9171 45.3887 40.9171 45.622C40.9171 45.8833 40.9684 46.1027 41.0711 46.28C41.1737 46.4573 41.3184 46.616 41.5051 46.756C41.6917 46.8867 41.9064 47.008 42.1491 47.12C42.4011 47.232 42.6764 47.344 42.9751 47.456C43.3951 47.624 43.7777 47.792 44.1231 47.96C44.4777 48.128 44.7811 48.3287 45.0331 48.562C45.2944 48.7953 45.4951 49.0753 45.6351 49.402C45.7751 49.7193 45.8451 50.1067 45.8451 50.564C45.8451 51.4133 45.5324 52.0667 44.9071 52.524C44.2911 52.9813 43.4184 53.21 42.2891 53.21C41.9064 53.21 41.5517 53.182 41.2251 53.126C40.9077 53.0793 40.6231 53.0233 40.3711 52.958C40.1191 52.8833 39.8997 52.8087 39.7131 52.734C39.5357 52.65 39.3957 52.58 39.2931 52.524L39.6991 51.404C39.9137 51.5253 40.2404 51.6607 40.6791 51.81C41.1177 51.9593 41.6544 52.034 42.2891 52.034ZM49.7402 52.034C51.1589 52.034 51.8682 51.5487 51.8682 50.578C51.8682 50.2793 51.8029 50.0273 51.6722 49.822C51.5509 49.6073 51.3829 49.4253 51.1682 49.276C50.9536 49.1173 50.7062 48.982 50.4262 48.87C50.1556 48.758 49.8662 48.646 49.5582 48.534C49.2036 48.4127 48.8676 48.2773 48.5502 48.128C48.2329 47.9693 47.9576 47.7873 47.7242 47.582C47.4909 47.3673 47.3042 47.1153 47.1642 46.826C47.0336 46.5367 46.9682 46.1867 46.9682 45.776C46.9682 44.9267 47.2576 44.264 47.8362 43.788C48.4149 43.312 49.2129 43.074 50.2302 43.074C50.8182 43.074 51.3502 43.1393 51.8262 43.27C52.3116 43.3913 52.6662 43.5267 52.8902 43.676L52.4562 44.782C52.2602 44.6607 51.9662 44.544 51.5742 44.432C51.1916 44.3107 50.7436 44.25 50.2302 44.25C49.9689 44.25 49.7262 44.278 49.5022 44.334C49.2782 44.39 49.0822 44.474 48.9142 44.586C48.7462 44.698 48.6109 44.8427 48.5082 45.02C48.4149 45.188 48.3682 45.3887 48.3682 45.622C48.3682 45.8833 48.4196 46.1027 48.5222 46.28C48.6249 46.4573 48.7696 46.616 48.9562 46.756C49.1429 46.8867 49.3576 47.008 49.6002 47.12C49.8522 47.232 50.1276 47.344 50.4262 47.456C50.8462 47.624 51.2289 47.792 51.5742 47.96C51.9289 48.128 52.2322 48.3287 52.4842 48.562C52.7456 48.7953 52.9462 49.0753 53.0862 49.402C53.2262 49.7193 53.2962 50.1067 53.2962 50.564C53.2962 51.4133 52.9836 52.0667 52.3582 52.524C51.7422 52.9813 50.8696 53.21 49.7402 53.21C49.3576 53.21 49.0029 53.182 48.6762 53.126C48.3589 53.0793 48.0742 53.0233 47.8222 52.958C47.5702 52.8833 47.3509 52.8087 47.1642 52.734C46.9869 52.65 46.8469 52.58 46.7442 52.524L47.1502 51.404C47.3649 51.5253 47.6916 51.6607 48.1302 51.81C48.5689 51.9593 49.1056 52.034 49.7402 52.034Z" fill="white"/>
<path fill-rule="evenodd" clip-rule="evenodd" d="M26.9132 30.4414C29.7261 33.0541 33.4241 34.5047 37.2632 34.5014C45.4222 34.5007 52.1353 28.0781 52.4967 19.9271C52.8582 11.7761 46.7401 4.78449 38.6132 4.06144C33.7234 -0.467057 26.4593 -1.29574 20.6752 2.01508C14.8912 5.32589 11.927 12.0092 13.3555 18.5189C14.784 25.0287 20.2742 29.8567 26.9132 30.4414ZM44.5713 30.8517C39.8813 33.8274 33.8616 33.6892 29.3132 30.5014V30.4614C34.9517 30.0808 39.9159 26.6092 42.2082 21.4436C44.5005 16.2781 43.744 10.2679 40.2432 5.83144C45.6602 7.05882 49.8068 11.4248 50.7535 16.8978C51.7003 22.3709 49.2612 27.876 44.5713 30.8517ZM27.5632 28.9814H28.2632C33.8284 28.985 38.8461 25.6312 40.971 20.4876C43.0958 15.3441 41.9082 9.42673 37.9632 5.50144H37.2632C31.698 5.49789 26.6803 8.8517 24.5554 13.9952C22.4305 19.1388 23.6181 25.0561 27.5632 28.9814ZM14.5906 13.7424C15.3601 6.77268 21.2511 1.49855 28.2632 1.50144C31.1133 1.49801 33.893 2.38614 36.2132 4.04144C30.571 4.41524 25.6004 7.88417 23.3033 13.0511C21.0062 18.218 21.7608 24.2322 25.2632 28.6714C18.4194 27.1444 13.821 20.7121 14.5906 13.7424Z" fill="white"/>
</svg>
