<svg width="40" height="35" viewBox="0 0 40 35" fill="none" xmlns="http://www.w3.org/2000/svg">
<path fill-rule="evenodd" clip-rule="evenodd" d="M13.9132 30.4414C16.7261 33.0541 20.4241 34.5047 24.2632 34.5014C32.4222 34.5007 39.1353 28.0781 39.4967 19.9271C39.8582 11.7761 33.7401 4.78449 25.6132 4.06144C20.7234 -0.467058 13.4593 -1.29574 7.67518 2.01508C1.89118 5.32589 -1.07301 12.0092 0.355485 18.5189C1.78399 25.0287 7.27419 29.8567 13.9132 30.4414ZM31.5713 30.8517C26.8813 33.8274 20.8616 33.6892 16.3132 30.5014V30.4614C21.9517 30.0808 26.9159 26.6092 29.2082 21.4436C31.5005 16.2781 30.744 10.2679 27.2432 5.83144C32.6602 7.05882 36.8068 11.4248 37.7535 16.8978C38.7003 22.3709 36.2612 27.876 31.5713 30.8517ZM14.5632 28.9814H15.2632C20.8284 28.985 25.8461 25.6312 27.971 20.4876C30.0958 15.3441 28.9082 9.42673 24.9632 5.50144H24.2632C18.698 5.49789 13.6803 8.8517 11.5554 13.9952C9.43049 19.1388 10.6181 25.0561 14.5632 28.9814ZM1.59058 13.7424C2.36009 6.77268 8.25109 1.49855 15.2632 1.50144C18.1133 1.49801 20.893 2.38614 23.2132 4.04144C17.571 4.41524 12.6004 7.88417 10.3033 13.0511C8.00619 18.218 8.76079 24.2322 12.2632 28.6714C5.41939 27.1444 0.820985 20.7121 1.59058 13.7424Z" fill="white"/>
</svg>
