<svg width="27" height="25" viewBox="0 0 27 25" fill="none" xmlns="http://www.w3.org/2000/svg">
<path d="M9.43233 7.30581C15.1469 6.46895 20.0724 7.67293 20.4115 9.98906C20.5157 10.7011 20.2378 11.9006 19.111 12.9377C18.2145 13.7628 16.134 15.0128 12.2704 14.1157C12.2132 14.1024 12.156 14.138 12.1426 14.1953C12.1295 14.2525 12.1644 14.3099 12.2224 14.3231C16.1814 15.2428 18.3281 13.9481 19.2553 13.0945C20.2331 12.1945 20.7698 10.9634 20.6225 9.95828C20.2653 7.52543 15.2324 6.24116 9.40143 7.09489C5.76781 7.62739 2.26092 9.61955 1.41729 11.6307C1.39841 11.6759 1.413 11.7268 1.44993 11.7556C1.45731 11.7614 1.46549 11.7662 1.47445 11.7699C1.5287 11.7929 1.59125 11.7671 1.61387 11.7129C2.41754 9.79652 5.92495 7.81962 9.43233 7.30581Z" stroke="black"/>
<path d="M17.9637 17.9922C21.5975 17.4599 25.1046 15.4678 25.948 13.457C25.9707 13.4029 25.9459 13.3403 25.8909 13.3176C25.8367 13.295 25.7743 13.3205 25.7515 13.3746C24.9478 15.2907 21.4406 17.2678 17.9329 17.7816C15.1498 18.1893 12.4698 18.1267 10.3862 17.6063C8.33422 17.0937 7.11533 16.2031 6.95344 15.0984C6.84917 14.3863 7.1272 13.1867 8.25443 12.1493C9.1508 11.3241 11.2313 10.0742 15.0942 10.9717C15.1515 10.9849 15.2087 10.9493 15.222 10.8922C15.2353 10.8347 15.1995 10.7775 15.1425 10.7643C11.1838 9.84463 9.0372 11.1391 8.10988 11.9929C7.1321 12.8929 6.59529 14.1242 6.74269 15.1294C6.82686 15.705 7.16584 16.2239 7.73331 16.6672C8.34543 17.1455 9.2235 17.5355 10.3344 17.8134C12.4445 18.34 15.1538 18.4038 17.9637 17.9922Z" stroke="black"/>
</svg>
