<svg width="55" height="27" viewBox="0 0 55 27" fill="none" xmlns="http://www.w3.org/2000/svg">
<path d="M18.2323 2.28106C30.7038 0.454665 41.4534 3.08226 42.1933 8.13696C42.4208 9.69106 41.8143 12.3088 39.3552 14.5723C37.3986 16.3729 32.8582 19.1009 24.4262 17.1432C24.3014 17.1141 24.1765 17.1917 24.1471 17.3168C24.1187 17.4415 24.1947 17.567 24.3214 17.5958C32.9615 19.6028 37.6466 16.7773 39.6701 14.9144C41.804 12.9503 42.9753 10.2634 42.654 8.06987C41.8742 2.76037 30.8905 -0.0424355 18.1649 1.82076C10.2348 2.98286 2.58129 7.33056 0.740194 11.7197C0.698994 11.8185 0.730793 11.9295 0.811393 11.9925C0.827493 12.0051 0.845393 12.0154 0.864893 12.0236C0.983293 12.0737 1.11979 12.0175 1.16919 11.8992C2.92309 7.71676 10.5777 3.40236 18.2323 2.28106Z" stroke="white"/>
<path d="M36.8558 25.6038C44.7862 24.442 52.4401 20.0946 54.2807 15.7062C54.3304 15.5882 54.2762 15.4514 54.1562 15.4019C54.0379 15.3525 53.9017 15.4083 53.8519 15.5264C52.0979 19.7081 44.4437 24.0228 36.7885 25.1442C30.7146 26.034 24.8657 25.8974 20.3185 24.7615C15.8403 23.643 13.1801 21.6992 12.8268 19.2883C12.5993 17.7343 13.206 15.1161 15.6661 12.8523C17.6224 11.0513 22.1628 8.32339 30.5933 10.2823C30.7183 10.311 30.8433 10.2334 30.8723 10.1086C30.9013 9.98319 30.8231 9.85829 30.6986 9.82959C22.0592 7.82249 17.3744 10.6476 15.3507 12.5108C13.2167 14.475 12.0452 17.1622 12.3669 19.356C12.5506 20.6121 13.2904 21.7446 14.5288 22.7122C15.8647 23.7559 17.781 24.6071 20.2054 25.2135C24.8106 26.3629 30.7234 26.5022 36.8558 25.6038Z" stroke="white"/>
</svg>
