<?xml version="1.0" standalone="no"?>
<!DOCTYPE svg PUBLIC "-//W3C//DTD SVG 20010904//EN"
 "http://www.w3.org/TR/2001/REC-SVG-20010904/DTD/svg10.dtd">
<svg version="1.0" xmlns="http://www.w3.org/2000/svg"
 width="512.000000pt" height="512.000000pt" viewBox="0 0 512.000000 512.000000"
 preserveAspectRatio="xMidYMid meet">
<metadata>
Created by potrace 1.14, written by Peter Selinger 2001-2017
</metadata>
<g transform="translate(0.000000,512.000000) scale(0.100000,-0.100000)"
fill="#000000" stroke="none">
<path d="M1360 4729 c0 -6 -4 -7 -10 -4 -29 18 -230 -118 -230 -157 0 -5 -4
-7 -8 -4 -5 3 -20 -20 -34 -52 -36 -80 -41 -95 -39 -109 1 -7 -3 -13 -8 -13
-6 0 -8 -7 -5 -15 4 -8 1 -22 -6 -30 -7 -8 -8 -15 -3 -15 9 0 10 -22 3 -55 -1
-5 -1 -12 0 -15 1 -3 3 -18 6 -35 3 -29 10 -65 14 -75 1 -3 2 -8 1 -12 0 -5 3
-8 9 -8 5 0 7 -7 4 -15 -4 -8 -1 -15 5 -15 6 0 11 -5 11 -11 0 -6 9 -24 21
-40 11 -16 18 -29 15 -29 -3 0 5 -11 18 -25 13 -14 29 -25 36 -25 7 0 11 -3 7
-6 -7 -7 29 -44 43 -44 6 0 10 -4 10 -9 0 -7 28 -19 47 -19 3 0 9 -6 13 -12 4
-7 19 -13 33 -13 14 -1 25 -6 24 -12 -1 -5 10 -9 26 -9 15 1 27 -2 27 -6 0 -8
151 -10 165 -1 6 3 17 6 25 7 35 3 80 17 80 25 0 5 4 8 8 6 13 -3 112 63 112
74 0 6 5 7 10 4 6 -3 10 1 10 10 0 9 4 14 9 10 5 -3 12 4 16 15 3 11 10 20 15
20 13 0 84 151 86 184 1 17 3 31 4 31 5 0 6 121 1 130 -3 6 -6 19 -6 30 -1 11
-5 28 -8 38 -18 45 -20 53 -19 60 1 4 -3 7 -9 7 -5 0 -7 5 -4 10 3 6 1 10 -4
10 -6 0 -11 6 -11 13 0 7 -9 23 -20 35 -11 12 -20 26 -20 32 0 6 -4 8 -10 5
-5 -3 -10 1 -10 9 0 9 -4 16 -10 16 -5 0 -20 10 -33 23 -22 21 -47 37 -84 55
-10 5 -29 15 -43 23 -30 16 -280 23 -280 8z"/>
<path d="M3385 4733 c-11 -2 -29 -8 -40 -13 -11 -5 -31 -14 -45 -20 -40 -16
-62 -32 -116 -85 -46 -45 -104 -130 -111 -162 -4 -19 -9 -36 -16 -53 -3 -8 -6
-22 -6 -30 -6 -93 -6 -128 1 -142 6 -12 5 -18 -4 -18 -6 0 -3 -7 8 -16 10 -8
13 -13 7 -9 -18 9 -17 3 14 -62 15 -32 27 -61 28 -65 0 -3 10 -18 22 -31 12
-14 19 -28 16 -31 -4 -3 1 -6 11 -6 9 0 14 -4 11 -10 -3 -5 -2 -10 2 -10 5 0
24 -14 43 -31 19 -18 49 -38 67 -46 18 -7 33 -18 33 -25 0 -6 3 -8 6 -5 4 3
14 2 23 -2 37 -20 241 -39 241 -23 0 4 8 8 18 9 43 3 62 8 62 16 0 4 5 5 10 2
6 -3 13 1 16 10 5 12 9 13 14 5 5 -8 11 -8 21 2 8 7 32 26 54 42 22 17 49 40
60 53 11 14 30 35 42 49 13 13 22 25 21 27 -4 7 15 47 23 47 5 0 8 3 7 8 -1 4
4 24 11 44 7 21 10 42 6 48 -3 5 -1 10 6 10 7 0 9 3 6 7 -4 3 -2 12 4 20 9 9
8 13 0 13 -8 0 -9 5 -1 19 7 14 7 22 0 26 -8 5 -7 11 1 21 6 8 7 14 2 14 -5 0
-11 17 -12 38 -1 20 -3 43 -3 50 -1 6 -5 12 -10 12 -4 0 -8 7 -8 15 0 42 -120
205 -150 205 -6 0 -10 4 -10 8 0 4 -22 20 -50 35 -27 15 -50 24 -50 21 0 -4
-7 0 -17 7 -11 10 -50 14 -132 15 -64 1 -125 0 -136 -3z"/>
<path d="M1190 3415 c0 -6 -30 -9 -72 -8 -43 0 -79 -4 -87 -10 -12 -10 -13 -9
-7 1 6 10 0 9 -23 -2 -17 -9 -31 -14 -31 -11 0 4 -6 0 -14 -7 -7 -7 -30 -26
-50 -42 -20 -16 -34 -31 -31 -34 2 -3 -5 -13 -17 -23 -11 -11 -18 -19 -15 -19
3 0 0 -15 -7 -32 -7 -18 -13 -45 -12 -60 1 -14 -2 -24 -6 -22 -4 2 -6 -5 -5
-16 1 -11 5 -20 10 -20 5 0 4 -7 -3 -15 -10 -12 -10 -18 -1 -29 8 -10 9 -16 1
-21 -6 -3 -7 -12 -3 -18 10 -16 11 -47 2 -41 -4 2 -7 -5 -6 -16 1 -11 5 -20
10 -20 5 0 4 -7 -3 -15 -9 -11 -10 -18 -1 -28 6 -8 8 -17 4 -20 -9 -10 -10
-138 -1 -165 5 -14 4 -21 -1 -17 -6 3 -9 -4 -8 -15 1 -11 5 -20 10 -20 5 0 4
-7 -3 -15 -6 -8 -8 -20 -4 -27 11 -17 13 -48 3 -42 -4 2 -7 -5 -6 -16 1 -11 5
-20 10 -20 5 0 4 -7 -3 -15 -6 -8 -8 -20 -4 -27 11 -17 13 -48 3 -42 -4 2 -7
-5 -6 -16 1 -11 5 -20 10 -20 6 0 6 -5 0 -12 -7 -10 -10 -193 -3 -193 1 0 3
-10 4 -22 1 -12 -1 -20 -5 -17 -4 2 -7 -5 -6 -16 1 -11 5 -20 10 -20 5 0 4 -7
-3 -15 -10 -12 -10 -18 -1 -29 8 -10 9 -16 1 -21 -6 -3 -7 -12 -3 -18 10 -16
11 -47 2 -41 -4 2 -7 -5 -6 -16 1 -11 5 -20 10 -20 5 0 4 -7 -3 -15 -6 -8 -8
-20 -4 -27 11 -17 13 -48 3 -42 -4 2 -7 -5 -6 -16 1 -11 5 -20 10 -20 5 0 4
-7 -3 -15 -6 -8 -8 -20 -4 -27 11 -17 13 -48 3 -42 -4 2 -7 -5 -6 -16 1 -11 5
-20 10 -20 5 0 4 -7 -3 -15 -6 -8 -8 -20 -4 -27 11 -17 13 -48 3 -42 -4 2 -7
-5 -6 -16 1 -11 5 -20 10 -20 4 0 5 -6 0 -12 -11 -19 -14 -48 -5 -48 10 0 9
-30 -2 -48 -4 -7 -2 -12 4 -12 6 0 10 -15 10 -32 0 -44 6 -89 15 -110 4 -10 8
-29 9 -43 0 -14 4 -25 8 -25 4 0 5 -6 2 -14 -3 -8 0 -17 5 -21 6 -3 9 -11 6
-16 -4 -5 -2 -9 2 -9 5 0 9 -10 10 -22 1 -11 7 -24 13 -28 7 -4 10 -9 8 -11
-6 -7 25 -89 34 -89 4 0 8 -9 8 -20 0 -11 5 -20 11 -20 5 0 7 -4 4 -10 -3 -5
-1 -10 5 -10 6 0 8 -4 5 -10 -3 -5 -2 -10 3 -10 5 0 17 -15 26 -34 8 -18 22
-39 31 -46 8 -7 15 -17 15 -22 0 -10 16 -31 43 -56 9 -9 17 -20 17 -24 0 -6
113 -121 142 -143 7 -6 40 -32 73 -58 33 -26 66 -47 73 -47 6 0 12 -5 12 -11
0 -5 4 -7 10 -4 5 3 10 2 10 -4 0 -6 11 -13 25 -17 14 -3 29 -12 33 -20 4 -7
16 -15 27 -18 43 -9 65 -19 65 -29 0 -6 3 -8 6 -4 4 3 20 -1 36 -9 17 -9 27
-11 24 -6 -4 6 8 3 26 -6 18 -9 40 -17 48 -18 20 -3 55 -12 55 -14 0 -1 16 -3
35 -6 57 -7 64 -9 79 -18 10 -6 12 -5 7 2 -5 8 -2 10 8 6 9 -3 14 -9 12 -13
-3 -3 35 -7 82 -9 59 -1 82 1 72 8 -13 9 -13 10 0 10 8 0 23 14 32 31 10 16
13 27 7 23 -6 -3 -13 3 -16 15 -3 12 -12 21 -20 21 -8 0 -12 3 -10 7 3 5 -1
14 -9 21 -8 7 -14 10 -14 7 0 -6 -60 56 -110 113 -56 64 -85 105 -82 115 1 5
-1 6 -5 4 -9 -6 -27 13 -31 33 -2 8 -8 17 -13 18 -5 2 -9 10 -9 18 0 9 -4 13
-9 10 -5 -4 -11 -2 -13 2 -1 4 -38 25 -80 45 -43 20 -78 42 -78 48 0 5 -4 7
-10 4 -5 -3 -10 -1 -10 4 0 6 -5 11 -10 11 -12 0 -28 12 -71 52 -15 16 -33 28
-39 28 -5 0 -10 6 -10 14 0 7 -11 22 -25 32 -14 10 -25 23 -25 28 0 5 -10 17
-22 27 -11 11 -18 19 -14 19 4 0 -4 14 -18 31 -14 17 -24 35 -20 40 3 5 1 9
-4 9 -10 0 -47 79 -44 93 1 4 -3 7 -9 7 -6 0 -9 7 -5 15 3 8 1 15 -5 15 -5 0
-9 6 -8 13 3 16 -10 67 -22 89 -6 12 -6 18 2 18 8 0 8 4 2 13 -13 15 -12 4
-16 259 -1 130 1 214 7 211 5 -4 6 0 1 8 -12 19 -13 239 -1 232 5 -4 6 0 1 8
-12 19 -13 239 -1 232 5 -4 6 0 1 8 -12 19 -13 239 -1 232 5 -4 6 0 1 8 -13
20 -13 239 0 231 5 -3 4 2 -4 11 -10 13 -10 17 -1 17 7 0 10 7 6 15 -3 8 -1
15 5 15 6 0 8 4 5 9 -3 5 11 20 32 33 37 24 40 24 260 24 200 -1 225 -3 236
-18 7 -10 16 -15 19 -11 7 6 32 -46 29 -59 -1 -5 1 -8 5 -8 5 0 8 -99 8 -220
0 -140 -4 -220 -10 -220 -7 0 -7 -3 0 -8 6 -4 10 -95 10 -237 0 -142 -4 -233
-10 -237 -7 -5 -7 -8 0 -8 6 0 10 -24 10 -54 0 -31 -3 -52 -9 -49 -5 4 -6 1
-1 -8 12 -19 12 -119 0 -119 -5 0 -4 -4 4 -9 9 -6 10 -11 2 -15 -6 -4 -8 -12
-4 -19 11 -17 9 -117 -2 -117 -7 0 -7 -3 0 -8 6 -4 10 -32 10 -62 0 -30 4 -61
10 -69 8 -12 7 -13 -4 -6 -11 6 -12 5 -5 -6 9 -15 10 -21 18 -84 2 -22 5 -41
7 -42 1 -2 2 -6 3 -10 14 -61 32 -113 38 -113 5 0 6 -5 2 -11 -3 -6 0 -15 7
-20 12 -7 12 -9 0 -9 -11 0 -10 -4 3 -19 10 -11 18 -26 20 -34 1 -8 10 -26 20
-42 11 -17 13 -25 5 -20 -9 6 -9 2 2 -11 9 -10 28 -41 44 -69 16 -27 32 -52
36 -55 4 -3 9 -12 11 -20 2 -8 11 -21 21 -28 9 -7 17 -20 17 -28 0 -8 4 -12
10 -9 6 3 10 -1 10 -10 0 -9 5 -13 10 -10 6 3 10 1 10 -5 0 -15 40 -66 48 -62
3 2 9 -5 13 -15 4 -10 8 -14 8 -10 1 5 13 -5 27 -22 14 -17 32 -31 40 -31 9 0
12 -4 9 -10 -3 -5 0 -10 7 -10 7 0 19 -9 26 -20 7 -11 19 -20 27 -20 8 0 15
-4 15 -10 0 -5 5 -10 10 -10 6 0 20 -9 32 -20 12 -10 25 -17 30 -14 4 3 11 -2
14 -10 3 -9 14 -16 23 -16 10 0 27 -9 39 -20 12 -12 22 -18 22 -15 0 3 15 -2
33 -11 58 -30 67 -34 82 -34 8 0 15 -4 15 -8 0 -4 8 -9 18 -10 18 -2 53 -9 62
-12 3 -1 8 -2 13 -1 4 0 7 -3 7 -8 0 -5 8 -8 18 -6 9 1 21 0 27 -3 12 -7 50
-13 97 -15 20 -1 34 -5 32 -9 -3 -4 -2 -8 3 -9 4 0 24 -2 43 -5 25 -3 31 -1
20 6 -9 6 -10 10 -3 10 6 0 15 -4 18 -10 3 -5 13 -10 21 -10 9 0 12 5 8 12 -5
7 -3 8 7 2 22 -13 73 -14 81 -1 4 7 8 7 8 2 0 -6 9 -11 20 -12 11 -1 18 2 15
7 -3 5 -1 11 5 15 5 3 10 -2 11 -12 0 -11 3 -13 6 -5 2 6 9 10 14 6 5 -3 9 -1
9 4 0 5 14 8 30 7 17 -1 30 0 30 4 0 4 10 7 23 8 32 1 74 10 93 21 9 5 26 7
37 4 12 -3 18 -1 14 5 -4 6 8 13 27 16 19 3 62 19 96 36 34 17 68 31 76 31 8
0 17 7 20 15 4 8 12 15 20 15 8 0 14 5 14 11 0 5 4 8 8 5 5 -3 21 6 36 19 16
14 33 22 39 18 6 -3 7 -1 3 5 -4 7 -3 12 3 12 6 0 19 10 31 22 11 12 20 18 20
14 0 -4 42 35 94 86 51 51 91 96 89 100 -2 4 6 12 18 18 11 7 18 14 15 17 -2
3 0 10 5 17 30 35 77 111 74 117 -3 4 2 10 11 13 8 3 12 10 9 16 -3 5 -1 10 5
10 6 0 8 5 5 10 -3 6 -1 10 5 10 6 0 8 5 5 10 -3 6 -1 10 6 10 7 0 9 3 6 7 -4
3 -2 12 4 20 6 7 8 13 3 13 -5 0 -3 4 4 9 7 4 14 18 15 29 1 12 5 22 9 22 4 0
7 3 7 8 -1 4 0 10 1 15 1 4 4 12 5 17 1 6 4 12 5 15 1 3 4 10 5 15 1 6 3 11 5
13 2 3 9 37 14 67 2 14 5 25 6 25 3 0 10 40 12 70 0 17 6 33 12 37 7 5 6 8 -3
8 -9 0 -10 4 -4 13 11 14 11 27 -1 46 -6 9 -5 12 1 8 6 -4 9 293 8 816 -1 452
-3 822 -4 822 -1 0 -4 11 -7 24 -2 13 -13 36 -24 51 -11 15 -17 30 -13 34 3 3
-1 6 -10 6 -9 0 -17 7 -17 15 0 8 -4 15 -9 15 -5 0 -16 7 -24 15 -8 8 -21 16
-28 17 -8 2 -20 9 -27 16 -8 7 -18 10 -23 7 -5 -4 -9 -2 -9 4 0 5 -9 8 -20 6
-11 -2 -20 1 -20 6 0 6 -7 6 -18 0 -13 -7 -23 -6 -30 1 -8 8 -12 8 -12 1 0 -7
-14 -8 -40 -3 -27 5 -40 4 -40 -4 0 -6 -5 -4 -10 4 -7 11 -10 11 -10 2 0 -10
-5 -10 -20 -2 -14 8 -20 8 -20 0 0 -8 -6 -8 -20 0 -15 8 -20 8 -20 -2 0 -9 -3
-9 -10 2 -6 9 -10 10 -10 3 0 -8 -9 -9 -30 -3 -21 6 -30 5 -30 -3 0 -7 -4 -6
-10 3 -7 11 -10 11 -10 2 0 -10 -5 -10 -20 -2 -15 8 -20 8 -20 -2 0 -9 -3 -9
-10 2 -7 11 -10 11 -10 2 0 -10 -5 -10 -20 -2 -11 6 -20 7 -20 2 0 -5 -18 -6
-40 -2 -27 5 -40 4 -40 -4 0 -6 -5 -4 -10 4 -5 8 -10 10 -10 4 0 -8 -13 -9
-40 -4 -27 5 -40 4 -40 -4 0 -6 -5 -4 -10 4 -7 11 -10 11 -10 2 0 -10 -5 -10
-20 -2 -14 8 -20 8 -20 0 0 -8 -6 -8 -20 0 -15 8 -20 8 -20 -2 0 -9 -3 -9 -10
2 -6 9 -10 10 -10 3 0 -8 -9 -9 -30 -3 -21 6 -30 5 -30 -3 0 -7 -4 -6 -10 3
-5 8 -10 10 -10 4 0 -14 -32 -13 -42 1 -5 6 -8 5 -8 -3 0 -10 -5 -10 -20 -2
-15 8 -20 8 -20 -2 0 -9 -3 -9 -10 2 -5 8 -10 10 -10 5 0 -6 -12 -11 -27 -10
-29 1 -110 -38 -129 -61 -6 -8 -14 -11 -17 -7 -4 3 -7 -1 -7 -10 0 -10 -7 -17
-16 -17 -8 0 -12 -5 -9 -10 3 -6 -1 -13 -9 -16 -9 -3 -14 -9 -11 -13 2 -4 -3
-21 -11 -37 -19 -36 -27 -127 -10 -117 8 4 8 2 -1 -7 -6 -7 -9 -19 -6 -28 5
-11 3 -13 -8 -7 -11 7 -12 6 -3 -6 15 -20 16 -61 1 -52 -9 5 -9 3 -1 -8 6 -8
10 -42 9 -76 -2 -44 1 -61 9 -56 7 4 7 2 -1 -7 -6 -7 -9 -19 -6 -28 5 -11 3
-13 -8 -7 -11 7 -12 6 -3 -6 15 -20 16 -61 1 -52 -9 5 -9 3 -1 -8 6 -8 10 -43
9 -79 -1 -36 3 -71 9 -79 8 -11 8 -13 0 -8 -7 4 -10 -34 -10 -123 1 -83 4
-126 11 -123 5 3 2 -2 -7 -12 -11 -12 -14 -24 -8 -39 9 -26 7 -97 -5 -116 -5
-8 -4 -11 3 -6 7 4 10 -4 10 -23 -1 -18 -5 -28 -11 -24 -6 4 -7 1 -2 -8 13
-20 13 -49 1 -49 -6 0 -3 -5 7 -11 12 -7 15 -15 9 -22 -5 -7 -8 -65 -8 -130 1
-72 -3 -117 -9 -117 -6 0 -6 -3 0 -8 14 -9 14 -72 0 -72 -6 0 -6 -3 1 -8 13
-9 13 -64 -1 -74 -6 -5 -6 -8 2 -8 10 0 9 -88 -2 -99 -3 -2 1 -11 8 -19 10
-13 9 -14 -2 -7 -11 6 -13 4 -8 -8 3 -10 2 -17 -3 -17 -5 0 -7 -7 -4 -15 4 -8
1 -21 -5 -29 -6 -7 -8 -16 -5 -19 3 -3 2 -12 -2 -19 -9 -13 -14 -33 -16 -55
-1 -7 -6 -13 -11 -13 -5 0 -7 -6 -4 -14 3 -8 2 -16 -3 -18 -5 -2 -11 -12 -13
-23 -1 -11 -6 -26 -10 -32 -5 -8 -3 -13 5 -13 9 0 9 -3 -2 -10 -10 -6 -11 -10
-2 -10 6 0 11 -3 11 -7 -3 -21 4 -36 31 -65 16 -17 30 -28 30 -24 0 4 10 0 22
-8 27 -19 41 -21 33 -3 -4 6 -1 5 7 -3 7 -9 23 -15 36 -14 12 1 22 -2 22 -6 0
-10 20 -8 39 4 9 6 12 5 8 -1 -9 -15 62 -11 89 4 12 7 23 10 26 8 3 -3 11 6
18 20 7 14 17 25 22 25 4 0 8 9 8 20 0 11 5 20 12 20 6 0 8 3 5 7 -4 3 -2 12
4 20 6 7 9 13 5 13 -3 0 -1 12 5 28 11 28 21 68 22 90 0 6 3 12 7 12 4 0 6 10
6 22 -1 13 2 29 7 36 5 6 7 12 3 12 -3 0 -1 11 4 25 6 17 6 25 -1 25 -6 0 -7
6 -2 13 9 15 11 35 14 177 1 67 6 121 13 129 8 11 8 13 -1 8 -6 -4 -14 -3 -18
3 -3 5 -2 10 3 10 9 0 7 51 -3 78 -3 7 -1 11 3 8 4 -2 7 235 6 527 -1 575 -2
566 54 603 24 17 51 19 244 19 l216 1 39 -26 c21 -14 39 -31 39 -38 1 -7 3
-15 4 -19 1 -5 2 -11 1 -15 0 -5 4 -8 10 -8 6 0 7 -6 2 -12 -10 -17 -10 -49 0
-72 6 -13 6 -16 -2 -12 -13 9 -14 4 -2 -27 6 -14 7 -28 4 -31 -10 -9 -9 -86 0
-86 4 0 5 -5 2 -10 -10 -16 -12 -120 -2 -120 4 0 5 -5 1 -12 -10 -17 -11 -68
0 -68 5 0 5 -6 0 -12 -11 -16 -11 -39 -1 -55 5 -7 4 -13 -1 -13 -5 0 -9 -7 -9
-15 0 -8 4 -15 9 -15 5 0 6 -5 3 -10 -10 -17 -11 -120 -1 -120 5 0 5 -5 0 -12
-11 -16 -11 -39 -1 -55 5 -7 4 -13 -1 -13 -5 0 -9 -7 -9 -15 0 -8 4 -15 9 -15
5 0 6 -5 3 -10 -10 -17 -11 -120 -1 -120 5 0 5 -5 0 -12 -11 -16 -11 -39 -1
-55 5 -7 4 -13 -1 -13 -5 0 -9 -7 -9 -15 0 -8 4 -15 9 -15 5 0 6 -5 3 -10 -11
-18 -11 -120 0 -124 7 -3 7 -7 0 -13 -13 -10 -15 -83 -3 -83 5 0 7 -4 3 -10
-3 -5 -8 -44 -10 -87 -5 -89 -7 -103 -19 -121 -4 -7 -5 -16 -2 -19 3 -3 -1
-21 -9 -39 -8 -19 -11 -34 -7 -34 4 0 0 -5 -8 -10 -13 -8 -13 -10 -1 -10 11 0
9 -4 -5 -15 -10 -8 -16 -15 -12 -15 7 0 -15 -44 -64 -132 -7 -13 -23 -33 -35
-44 -12 -12 -20 -24 -17 -27 3 -3 -6 -14 -20 -25 -14 -10 -24 -21 -23 -23 2
-2 -7 -14 -20 -26 -13 -12 -23 -20 -23 -18 0 2 -13 -8 -29 -23 -47 -43 -59
-52 -71 -52 -5 0 -10 -4 -10 -8 0 -10 -145 -83 -170 -85 -11 -1 -20 -6 -20
-11 0 -5 -3 -6 -7 -3 -3 4 -17 0 -30 -8 -15 -10 -23 -12 -23 -4 0 8 -4 8 -15
-1 -8 -7 -15 -9 -15 -5 0 4 -7 2 -15 -5 -12 -10 -15 -10 -15 1 0 9 -3 10 -8 4
-4 -6 -17 -10 -29 -9 -13 1 -23 -2 -23 -5 0 -4 -9 -7 -20 -7 -11 0 -20 4 -20
8 0 5 -8 5 -17 1 -22 -10 -44 -10 -60 0 -8 5 -13 3 -13 -5 0 -8 -3 -9 -8 -3
-9 12 -26 17 -74 19 -21 0 -38 5 -38 9 0 5 -4 6 -8 3 -5 -3 -21 1 -36 9 -18
10 -24 10 -19 2 4 -7 0 -7 -10 2 -9 7 -17 10 -17 5 0 -4 -7 1 -16 12 -8 10
-13 13 -9 7 3 -7 1 -13 -4 -13 -6 0 -11 4 -11 9 0 5 -13 12 -30 16 -16 4 -30
11 -30 16 0 5 -9 9 -19 9 -10 0 -22 7 -25 16 -3 8 -10 12 -16 9 -5 -3 -10 -1
-10 6 0 7 -3 10 -6 6 -4 -3 -12 -1 -19 6 -7 7 -29 26 -50 42 -46 36 -75 66
-75 77 0 4 -6 8 -13 8 -8 0 -19 11 -25 25 -6 14 -16 25 -22 25 -6 0 -8 5 -5
10 3 6 0 13 -9 16 -8 3 -19 19 -25 35 -5 16 -14 29 -20 29 -5 0 -12 13 -16 30
-4 16 -11 30 -17 30 -6 0 -7 7 -4 15 3 9 0 18 -7 21 -7 2 -14 16 -15 31 -1 14
-6 31 -12 38 -5 6 -11 28 -14 48 -2 20 -7 41 -11 47 -3 6 -7 34 -9 63 -1 29
-6 58 -10 65 -4 7 -3 12 2 12 9 0 8 47 -2 57 -3 3 -1 14 5 24 7 14 6 19 -2 19
-8 0 -9 4 0 13 8 10 7 17 -1 25 -9 9 -9 12 0 12 9 0 10 5 3 18 -6 11 -6 24 0
35 7 12 6 17 -2 17 -8 0 -9 4 0 13 8 10 7 17 -1 25 -9 9 -9 12 0 12 14 0 12
21 -3 33 -6 4 -6 10 2 15 8 5 9 13 3 22 -5 8 -5 21 1 32 7 13 6 18 -3 18 -10
0 -10 2 -1 8 8 5 9 13 3 22 -5 8 -5 21 1 32 7 13 6 18 -3 18 -10 0 -10 2 -1 8
8 5 9 13 3 22 -5 8 -5 21 1 32 7 13 6 18 -3 18 -10 0 -10 2 -1 8 8 5 9 13 3
22 -5 8 -4 22 2 33 7 14 7 22 -2 27 -9 6 -9 9 -1 15 9 5 9 10 0 21 -6 8 -7 14
-2 14 11 0 11 29 -1 48 -4 7 -2 12 4 12 7 0 8 6 1 18 -6 11 -6 24 0 35 7 12 6
17 -2 17 -8 0 -9 4 0 13 8 10 7 17 -1 25 -9 9 -9 12 0 12 9 0 10 5 3 17 -6 11
-6 24 0 35 7 12 6 18 -2 18 -8 0 -9 4 0 13 8 10 7 17 -1 25 -9 9 -9 12 0 12 9
0 10 5 3 17 -6 11 -6 24 0 35 7 12 6 18 -2 18 -8 0 -9 4 0 13 8 10 7 17 -1 25
-9 9 -9 12 0 12 9 0 10 5 3 18 -6 11 -6 24 0 35 7 12 6 17 -2 17 -8 0 -9 4 0
13 8 10 7 17 -1 25 -9 9 -9 12 0 12 14 0 12 21 -3 33 -6 4 -6 10 2 15 8 5 9
13 3 22 -5 8 -5 21 1 32 7 13 6 18 -3 18 -10 0 -10 2 -1 8 8 5 9 13 3 22 -5 8
-5 21 1 32 7 13 6 18 -3 18 -10 0 -10 2 -1 8 8 5 9 13 3 22 -5 8 -5 21 1 31 6
11 5 20 -1 24 -7 4 -7 13 0 26 6 10 7 19 2 19 -4 0 -9 8 -10 18 -4 37 -8 50
-25 75 -9 15 -17 29 -17 33 0 11 -73 74 -87 74 -7 0 -13 5 -13 10 0 6 -8 10
-18 10 -10 0 -24 6 -31 13 -11 10 -12 9 -6 -3 7 -12 6 -13 -6 -4 -19 15 -99
23 -99 9 0 -5 -5 -3 -10 5 -5 8 -10 10 -10 4 0 -8 -13 -9 -40 -4 -27 5 -40 4
-40 -4 0 -6 -5 -4 -10 4 -7 11 -10 11 -10 2 0 -10 -5 -10 -20 -2 -14 8 -20 8
-20 0 0 -8 -6 -8 -20 0 -15 8 -20 8 -20 -2 0 -9 -3 -9 -10 2 -6 9 -10 10 -10
3 0 -8 -9 -9 -30 -3 -21 6 -30 5 -30 -3 0 -7 -4 -6 -10 3 -5 8 -10 10 -10 4 0
-7 -17 -8 -50 -4 -33 4 -50 3 -50 -4 0 -6 -5 -4 -10 4 -5 8 -10 10 -10 5 0 -6
-26 -8 -70 -5 -44 3 -70 1 -70 -5 0 -5 -5 -3 -10 5 -5 8 -10 10 -10 5 0 -6
-26 -8 -70 -5 -44 3 -70 1 -70 -5 0 -5 -5 -3 -10 5 -5 8 -10 11 -10 5z m775
-3015 c3 -5 1 -10 -4 -10 -6 0 -11 5 -11 10 0 6 2 10 4 10 3 0 8 -4 11 -10z"/>
</g>
</svg>
