<svg width="94" height="24" viewBox="0 0 94 24" fill="none" xmlns="http://www.w3.org/2000/svg">
    <path fill-rule="evenodd" clip-rule="evenodd" d="M3.16616 0.0363738C2.83955 0.090009 2.23506 0.377305 1.96515 0.607242C1.03564 1.39904 0.849444 2.83904 1.5448 3.85735C2.0805 4.64186 3.1004 5.07315 4.04879 4.91622C5.03988 4.75225 5.89293 3.98173 6.11169 3.05288C6.18954 2.72226 6.17904 2.16136 6.08864 1.82193C5.76219 0.596223 4.49013 -0.180985 3.16616 0.0363738ZM14.3167 0.0554429C13.4846 0.240751 12.7715 0.853531 12.4848 1.62983C12.3342 2.03728 12.3036 2.69751 12.4174 3.08297C12.7902 4.34596 13.9983 5.12583 15.2588 4.91728C16.5169 4.70908 17.3837 3.7125 17.3837 2.47426C17.3837 1.59245 16.9568 0.826361 16.2095 0.367242C15.6942 0.0506631 14.9148 -0.0777395 14.3167 0.0554429ZM22.8076 7.19803C22.5177 7.28865 22.3073 7.45197 22.1626 7.69886L22.04 7.90822L22.0265 15.3237L22.0129 22.7391L22.136 23.002C22.2664 23.2805 22.4902 23.4791 22.7808 23.5742C22.8972 23.6123 23.5103 23.6315 24.611 23.6315H26.2662L26.5455 23.4931C26.8427 23.3459 27.0206 23.1366 27.107 22.8324C27.1386 22.7214 27.1588 21.644 27.159 20.0717L27.1593 17.4931H29.9604H32.7615L32.7773 20.1221C32.7927 22.6792 32.7961 22.7572 32.9022 22.9774C32.9622 23.1019 33.0783 23.2652 33.1602 23.3402C33.4573 23.6124 33.6057 23.6315 35.4107 23.631C37.0435 23.6305 37.0667 23.6291 37.3268 23.5106C37.6061 23.3834 37.8092 23.1628 37.9054 22.8819C37.9481 22.7571 37.9639 20.7208 37.9639 15.3571V8.00347L37.8335 7.74752C37.6855 7.457 37.42 7.25766 37.0786 7.18063C36.9571 7.15325 36.1847 7.13026 35.3622 7.12956C33.6477 7.12815 33.4581 7.15728 33.1372 7.47114C32.7966 7.80422 32.8003 7.77071 32.7803 10.7133L32.7624 13.3673H29.9608H27.1593V10.7601C27.1593 7.86375 27.1518 7.78762 26.8391 7.49741C26.4671 7.1521 26.4825 7.15461 24.664 7.14299C23.4273 7.13509 22.9653 7.14878 22.8076 7.19803ZM41.8402 7.19894C41.5164 7.30037 41.3309 7.45398 41.184 7.74234L41.0509 8.00347V12.344C41.0509 17.0423 41.0604 17.2387 41.3376 18.2819C41.708 19.676 42.3437 20.778 43.3368 21.7475C44.5489 22.9308 46.1819 23.6703 48.0552 23.8842C48.8561 23.9756 50.4375 23.9254 51.1506 23.7859C54.7369 23.0844 57.0544 20.503 57.4102 16.8139C57.4419 16.4852 57.4636 14.6243 57.4636 12.2318C57.4636 7.71537 57.4721 7.82923 57.1096 7.47461C56.7881 7.16025 56.5835 7.12835 54.8899 7.12835C53.317 7.12835 53.1066 7.15361 52.7788 7.38193C52.6853 7.44699 52.5557 7.61826 52.4792 7.77786L52.3443 8.05917L52.3183 12.5372L52.2922 17.0151L52.1516 17.4216C51.6704 18.8125 50.3579 19.6041 48.8643 19.4041C47.7565 19.2558 47.007 18.7217 46.5353 17.7444C46.2011 17.0517 46.196 16.9702 46.196 12.3264C46.196 9.504 46.1781 8.10973 46.14 7.96176C46.0697 7.6888 45.8381 7.41031 45.5607 7.26525C45.3541 7.15723 45.2923 7.15315 43.7006 7.14269C42.445 7.13444 42.0034 7.14777 41.8402 7.19894ZM61.2926 7.19934C61.0037 7.2878 60.7927 7.45122 60.6476 7.69886L60.5249 7.90822L60.5107 15.3045C60.4978 22.0282 60.5042 22.7203 60.5801 22.9165C60.6991 23.2239 60.8697 23.4006 61.1695 23.5267C61.4232 23.6334 61.4791 23.6361 63.1428 23.6214L64.8551 23.6063L65.1054 23.4549C65.283 23.3475 65.3938 23.231 65.4871 23.0539L65.6185 22.8042L65.6332 20.3499L65.648 17.8956H66.2285H66.809L68.1621 20.3233C68.9063 21.6586 69.6165 22.8908 69.7404 23.0617C69.9117 23.2978 70.0316 23.4039 70.2402 23.5036L70.5146 23.6349L72.517 23.6206C74.4255 23.607 74.5291 23.6015 74.7253 23.5022C74.9885 23.3691 75.1267 23.1235 75.0865 22.86C75.0484 22.6102 75.0518 22.6164 73.3883 19.6818C72.6077 18.3047 71.9756 17.1735 71.9837 17.1681C71.9918 17.1627 72.1605 17.0727 72.3585 16.9681C73.6099 16.3078 74.4545 15.3578 74.8441 14.1724C75.0111 13.6641 75.0597 13.3038 75.0597 12.5735C75.0597 9.46113 73.0101 7.53358 69.3269 7.18198C68.4766 7.10083 61.5656 7.11577 61.2926 7.19934ZM78.2597 7.2238C77.9226 7.33771 77.7132 7.52805 77.5946 7.82873C77.5101 8.04276 77.5036 8.37242 77.5036 12.4617C77.5036 16.7796 77.5057 16.8758 77.6167 17.468C77.9601 19.3014 78.6426 20.6418 79.8045 21.7641C81.0304 22.9484 82.6035 23.6527 84.5441 23.886C85.3513 23.9831 86.923 23.9213 87.6965 23.7619C89.3041 23.4308 90.5164 22.8064 91.6081 21.7472C92.601 20.7839 93.2296 19.6908 93.6066 18.2719C93.8777 17.2512 93.8906 16.9846 93.8903 12.3711C93.8901 9.40468 93.8727 8.04835 93.8329 7.90837C93.7501 7.61645 93.4152 7.30948 93.0705 7.20941C92.6726 7.09383 90.0264 7.09051 89.632 7.20508C89.3119 7.29801 89.0878 7.47386 88.9362 7.75104L88.8227 7.95854L88.7953 12.4365C88.7706 16.4845 88.7594 16.9435 88.6788 17.2164C88.3575 18.3041 87.6027 19.0671 86.5846 19.333C86.148 19.4471 85.3311 19.4502 84.9009 19.3394C83.9287 19.089 83.2184 18.4305 82.8575 17.445L82.7001 17.0151L82.6744 12.5372L82.6486 8.05917L82.5117 7.77353C82.3561 7.449 82.1182 7.26475 81.7483 7.18239C81.6186 7.15351 80.8601 7.13102 80.0247 7.13122C78.7125 7.13157 78.4997 7.14274 78.2597 7.2238ZM1.16314 7.28266C0.713049 7.38883 0.368382 7.65902 0.140508 8.08432L0.0191876 8.31074L0.00473002 12.839C-0.00777245 16.7522 0.00128284 17.4414 0.0714613 17.9126C0.493509 20.7461 2.81408 23.0448 5.71722 23.5053C6.29625 23.5971 6.94602 23.6048 7.03189 23.5208C7.18567 23.3704 7.10181 23.1988 6.67708 22.7949C6.22705 22.3669 5.77269 21.8387 5.49794 21.4241C5.3457 21.1943 5.27063 21.1382 4.85893 20.9462C3.64372 20.3792 2.81866 19.4197 2.4016 18.0881C2.28676 17.7215 2.2861 17.6988 2.26968 13.7223C2.25739 10.7486 2.2686 9.68845 2.31347 9.58259C2.34665 9.50425 2.44595 9.38983 2.53419 9.3283C2.68931 9.22012 2.73551 9.2164 3.92942 9.2164C5.05732 9.2164 5.17674 9.22465 5.30835 9.3119C5.61304 9.51386 5.60151 9.3524 5.60197 13.4277C5.60223 15.6431 5.62384 17.3506 5.65502 17.6189C5.76075 18.5289 6.05088 19.4221 6.49114 20.193C7.31373 21.6333 8.8379 22.8317 10.4379 23.2962C11.2467 23.531 11.4474 23.5562 12.4702 23.5518C13.388 23.5479 13.4841 23.5382 14.0419 23.3943C15.7685 22.9489 17.1823 21.9574 18.1165 20.5372C18.5858 19.8236 18.8867 19.0986 19.0939 18.1818C19.2095 17.6705 19.2098 17.6575 19.21 13.0151L19.2102 8.36105L19.0855 8.11336C18.9269 7.79803 18.654 7.53122 18.3316 7.37605L18.0783 7.25414H15.2743H12.4702L12.2298 7.37107C11.8979 7.53247 11.6316 7.7999 11.4726 8.13127L11.3383 8.41137L11.3126 13.0906L11.2868 17.7699L11.0641 18.3948C10.8163 19.0898 10.8124 19.2441 11.0355 19.5033C11.1911 19.6842 11.6422 19.8352 12.1675 19.8822C12.7625 19.9354 13.0004 19.7406 13.2377 19.0063C13.5545 18.0257 13.5412 18.2322 13.573 13.7609C13.6017 9.70621 13.6036 9.64946 13.7087 9.50933C13.9344 9.20855 14.0477 9.18717 15.3349 9.20251C16.4217 9.21544 16.5117 9.22354 16.6469 9.3206C16.7267 9.37791 16.833 9.50244 16.8832 9.59733C16.9684 9.75884 16.9732 10.0187 16.9581 13.6692C16.9422 17.5225 16.9406 17.5737 16.8267 17.9963C16.3147 19.8949 14.6355 21.2666 12.7152 21.3548C12.0865 21.3836 11.5527 21.321 11.0367 21.1576C9.57807 20.6959 8.43705 19.5138 8.0097 18.0214C7.89512 17.6213 7.8943 17.5915 7.86703 12.9648C7.84151 8.62908 7.83333 8.29761 7.74746 8.11869C7.6069 7.82566 7.27556 7.5052 6.97668 7.37303L6.70775 7.25414L4.03232 7.24553C2.56084 7.24085 1.26974 7.25751 1.16314 7.28266ZM68.6726 11.3198C69.1378 11.4954 69.5223 11.8731 69.6886 12.3178C69.8149 12.6557 69.8021 13.2854 69.6626 13.5946C69.4381 14.092 68.9706 14.4259 68.364 14.5222C68.184 14.5507 67.4984 14.5743 66.8405 14.5745L65.6443 14.5749V12.8851V11.1954L67.0463 11.2153C68.2024 11.2316 68.4877 11.25 68.6726 11.3198Z" fill="white"/>
</svg>
