<svg width="66" height="76" viewBox="0 0 66 76" fill="none" xmlns="http://www.w3.org/2000/svg">
<path fill-rule="evenodd" clip-rule="evenodd" d="M33.7851 50C33.5962 49.9513 33.4097 49.8725 33.2184 49.8581C29.3555 49.5673 26.3874 47.7332 24.3194 44.532C23.1795 42.7675 22.6774 40.7557 22.736 38.6274C22.7468 38.234 22.8695 38.1091 23.2567 38.1133C24.6911 38.1293 26.126 38.1322 27.5602 38.1107C28.0042 38.1039 28.1515 38.2562 28.1523 38.6952C28.1557 40.3531 28.7602 41.8056 29.9687 42.9141C32.4947 45.2306 36.2086 44.9076 38.3342 42.4419C39.4323 41.1682 39.7691 39.7074 39.7678 38.0926C39.7644 34.5038 39.788 30.9151 39.8012 27.3265C39.8083 25.4605 39.8393 23.5942 39.8096 21.729C39.8012 21.1997 39.974 21.0837 40.4619 21.0916C41.8705 21.1144 43.2802 21.1049 44.6889 21.0809C45.1053 21.0738 45.2545 21.2096 45.2524 21.6282C45.2251 27.4823 45.2663 33.3377 45.1652 39.1904C45.1184 41.909 44.0164 44.2582 42.1222 46.2713C40.2168 48.2968 37.9225 49.4553 35.188 49.8157C34.7626 49.8717 34.3384 49.9382 33.9136 50H33.7851Z" fill="#E96E3A" stroke="#544296" stroke-width="3"/>
<path fill-rule="evenodd" clip-rule="evenodd" d="M10.1348 24.2168C10.888 19.4343 14.8384 15.569 19.6447 14.9267C20.2145 14.8508 20.7927 14.8076 21.3665 14.8123C21.517 14.8136 21.7931 15.0492 21.7957 15.1811C21.8252 16.821 21.8149 18.4616 21.8149 20.0984C21.0491 20.2253 20.3125 20.2847 19.6113 20.4742C16.0411 21.4385 14.3017 25.4091 16.107 28.776C17.2734 30.9514 19.2934 31.8147 21.7424 31.7974C25.7797 31.7688 29.8176 31.784 33.8555 31.773C35.3303 31.7688 36.8054 31.7461 38.28 31.722C38.5882 31.717 38.8338 31.7243 38.8288 32.1363C38.8096 33.7333 38.8041 35.3302 38.7897 36.9272C38.7892 36.9853 38.7487 37.0431 38.7014 37.168C37.2457 37.168 35.7746 37.1675 34.3034 37.1683C30.0204 37.1698 25.7374 37.1685 21.4545 37.1753C18.1937 37.1803 15.3796 36.0964 13.1029 33.7461C11.2159 31.7979 10.2013 29.4518 10.0124 26.7492C9.99925 26.5579 9.963 25.0994 10.1348 24.2168Z" fill="#270E54"/>
<path d="M10.1348 24.2168C10.888 19.4343 14.8384 15.569 19.6447 14.9267C20.2145 14.8508 20.7927 14.8076 21.3665 14.8123C21.517 14.8136 21.7931 15.0492 21.7957 15.1811C21.8252 16.821 21.8149 18.4616 21.8149 20.0984C21.0491 20.2253 20.3125 20.2847 19.6113 20.4742C16.0411 21.4385 14.3017 25.4091 16.107 28.776C17.2734 30.9514 19.2934 31.8147 21.7424 31.7974C25.7797 31.7688 29.8176 31.784 33.8555 31.773C35.3303 31.7688 36.8054 31.7461 38.28 31.722C38.5882 31.717 38.8338 31.7243 38.8288 32.1363C38.8096 33.7333 38.8041 35.3302 38.7897 36.9272C38.7892 36.9853 38.7487 37.0431 38.7014 37.168C37.2457 37.168 35.7746 37.1675 34.3034 37.1683C30.0204 37.1698 25.7374 37.1685 21.4545 37.1753C18.1937 37.1803 15.3796 36.0964 13.1029 33.7461C11.2159 31.7979 10.2013 29.4518 10.0124 26.7492C9.99925 26.5579 9.963 25.0994 10.1348 24.2168" stroke="#544296" stroke-width="3"/>
<path fill-rule="evenodd" clip-rule="evenodd" d="M28.1494 30.7862H22.7486C22.7486 29.8219 22.7479 28.8893 22.7486 27.9567C22.7523 23.1368 22.7263 18.3166 22.7691 13.497C22.8054 9.43326 24.4757 6.1454 27.8828 3.89145C31.5754 1.44826 36.2816 1.32105 40.0996 3.80743C43.4817 6.00981 45.1894 9.20161 45.224 13.2441C45.2256 13.4184 45.0023 13.7446 44.8786 13.7472C43.2337 13.7812 41.5879 13.77 39.9044 13.77C39.8458 13.2512 39.8072 12.7918 39.7407 12.3366C39.1575 8.34071 34.7267 6.1488 31.1223 8.21219C28.9701 9.44426 28.1812 11.4495 28.2046 13.9069C28.2493 18.5692 28.1739 23.2328 28.1502 27.8957C28.1452 28.838 28.1494 29.78 28.1494 30.7862Z" fill="#E96E3A"/>
<path d="M28.1494 30.7862H22.7486C22.7486 29.8219 22.7479 28.8893 22.7486 27.9567C22.7523 23.1368 22.7263 18.3166 22.7691 13.497C22.8054 9.43326 24.4757 6.1454 27.8828 3.89145C31.5754 1.44826 36.2816 1.32105 40.0996 3.80743C43.4817 6.00981 45.1894 9.20161 45.224 13.2441C45.2256 13.4184 45.0023 13.7446 44.8786 13.7472C43.2337 13.7812 41.5879 13.77 39.9044 13.77C39.8458 13.2512 39.8072 12.7918 39.7407 12.3366C39.1575 8.34071 34.7267 6.1488 31.1223 8.21219C28.9701 9.44426 28.1812 11.4495 28.2046 13.9069C28.2493 18.5692 28.1739 23.2328 28.1502 27.8957C28.1452 28.838 28.1494 29.78 28.1494 30.7862" stroke="#544296" stroke-width="3"/>
<path fill-rule="evenodd" clip-rule="evenodd" d="M46.1551 37.0538C46.1551 35.416 46.1593 33.8204 46.1522 32.2247C46.1504 31.8478 46.3035 31.6931 46.6887 31.6984C48.7728 31.7279 50.4008 30.8029 51.5633 29.1497C52.7562 27.4525 52.9506 25.5556 52.0995 23.6547C51.0281 21.2626 49.0946 20.1386 46.4785 20.1446C41.0533 20.1572 35.6278 20.1656 30.2025 20.1755C29.8836 20.176 29.5647 20.1755 29.2021 20.1755V14.7743C30.6308 14.7743 32.0126 14.779 33.3942 14.7732C37.4423 14.7562 41.4902 14.73 45.5383 14.7169C47.6478 14.7104 49.7148 14.8557 51.6768 15.8032C55.5772 17.6868 58.2771 21.9667 57.9768 26.4199C57.702 30.4935 55.7109 33.4613 52.3677 35.6016C50.6535 36.6991 48.6819 37.0742 46.6582 37.1441C46.4961 37.1496 46.3317 37.087 46.1551 37.0538Z" fill="#270E54"/>
<path d="M46.1551 37.0538C46.1551 35.416 46.1593 33.8204 46.1522 32.2247C46.1504 31.8478 46.3035 31.6931 46.6887 31.6984C48.7728 31.7279 50.4008 30.8029 51.5633 29.1497C52.7562 27.4525 52.9506 25.5556 52.0995 23.6547C51.0281 21.2626 49.0946 20.1386 46.4785 20.1446C41.0533 20.1572 35.6278 20.1656 30.2025 20.1755C29.8836 20.176 29.5647 20.1755 29.2021 20.1755V14.7743C30.6308 14.7743 32.0126 14.779 33.3942 14.7732C37.4423 14.7562 41.4902 14.73 45.5383 14.7169C47.6478 14.7104 49.7148 14.8557 51.6768 15.8032C55.5772 17.6868 58.2771 21.9667 57.9768 26.4199C57.702 30.4935 55.7109 33.4613 52.3677 35.6016C50.6535 36.6991 48.6819 37.0742 46.6582 37.1441C46.4961 37.1496 46.3317 37.087 46.1551 37.0538" stroke="#544296" stroke-width="3"/>
<path d="M10.7445 58.9091V67.4489C10.7445 69.3665 9.42773 70.7472 7.24166 70.7472C5.05558 70.7472 3.73881 69.3665 3.73881 67.4489V58.9091H2.15359V67.5767C2.15359 70.2614 4.16069 72.2301 7.24166 72.2301C10.3226 72.2301 12.3297 70.2614 12.3297 67.5767V58.9091H10.7445ZM15.4954 72H17.0806V66.1449H24.0607V72H25.646V58.9091H24.0607V64.7386H17.0806V58.9091H15.4954V72ZM37.4105 58.9091V67.4489C37.4105 69.3665 36.0938 70.7472 33.9077 70.7472C31.7216 70.7472 30.4048 69.3665 30.4048 67.4489V58.9091H28.8196V67.5767C28.8196 70.2614 30.8267 72.2301 33.9077 72.2301C36.9886 72.2301 38.9957 70.2614 38.9957 67.5767V58.9091H37.4105ZM42.1614 72H43.7466V66.8864H46.6103C46.7253 66.8864 46.834 66.8864 46.9426 66.88L49.704 72H51.5449L48.5854 66.5923C50.2537 66.0234 51.0336 64.6619 51.0336 62.9233C51.0336 60.6094 49.6529 58.9091 46.5847 58.9091H42.1614V72ZM43.7466 65.4545V60.3153H46.5336C48.6557 60.3153 49.4739 61.3509 49.4739 62.9233C49.4739 64.4957 48.6557 65.4545 46.5591 65.4545H43.7466ZM62.266 58.9091V67.4489C62.266 69.3665 60.9492 70.7472 58.7631 70.7472C56.5771 70.7472 55.2603 69.3665 55.2603 67.4489V58.9091H53.6751V67.5767C53.6751 70.2614 55.6822 72.2301 58.7631 72.2301C61.8441 72.2301 63.8512 70.2614 63.8512 67.5767V58.9091H62.266Z" fill="#F7F7F7"/>
</svg>
