<svg width="67" height="48" viewBox="0 0 67 48" fill="none" xmlns="http://www.w3.org/2000/svg">
<path d="M10.3079 32.42C9.91585 33.6707 9.51919 34.828 9.11785 35.892C8.71652 36.956 8.31519 37.992 7.91385 39H6.55585C6.06119 37.572 5.62252 36.0647 5.23985 34.478C4.86652 32.8913 4.51652 31.1647 4.18985 29.298H5.61785C5.74852 30.026 5.88385 30.754 6.02385 31.482C6.16385 32.21 6.30852 32.9193 6.45785 33.61C6.60719 34.2913 6.75652 34.9447 6.90585 35.57C7.05519 36.1953 7.20919 36.774 7.36785 37.306C7.74119 36.326 8.13785 35.2527 8.55785 34.086C8.97785 32.91 9.36985 31.6967 9.73385 30.446H10.9099C11.2739 31.6967 11.6705 32.91 12.0999 34.086C12.5292 35.2527 12.9305 36.326 13.3039 37.306C13.4532 36.7833 13.6025 36.2093 13.7519 35.584C13.9012 34.9587 14.0459 34.3053 14.1859 33.624C14.3352 32.9333 14.4799 32.224 14.6199 31.496C14.7599 30.7587 14.8952 30.026 15.0259 29.298H16.4119C16.0759 31.1647 15.7165 32.8913 15.3339 34.478C14.9605 36.0647 14.5312 37.572 14.0459 39H12.6879C12.2772 37.992 11.8759 36.956 11.4839 35.892C11.0919 34.828 10.6999 33.6707 10.3079 32.42ZM24.1078 29.298H25.4658V39H24.1078V34.52H19.3618V39H18.0038V29.298H19.3618V33.344H24.1078V29.298ZM27.8749 29.298H29.2329V39H27.8749V29.298ZM33.8887 38.034C35.3073 38.034 36.0167 37.5487 36.0167 36.578C36.0167 36.2793 35.9513 36.0273 35.8207 35.822C35.6993 35.6073 35.5313 35.4253 35.3167 35.276C35.102 35.1173 34.8547 34.982 34.5747 34.87C34.304 34.758 34.0147 34.646 33.7067 34.534C33.352 34.4127 33.016 34.2773 32.6987 34.128C32.3813 33.9693 32.106 33.7873 31.8727 33.582C31.6393 33.3673 31.4527 33.1153 31.3127 32.826C31.182 32.5367 31.1167 32.1867 31.1167 31.776C31.1167 30.9267 31.406 30.264 31.9847 29.788C32.5633 29.312 33.3613 29.074 34.3787 29.074C34.9667 29.074 35.4987 29.1393 35.9747 29.27C36.46 29.3913 36.8147 29.5267 37.0387 29.676L36.6047 30.782C36.4087 30.6607 36.1147 30.544 35.7227 30.432C35.34 30.3107 34.892 30.25 34.3787 30.25C34.1173 30.25 33.8747 30.278 33.6507 30.334C33.4267 30.39 33.2307 30.474 33.0627 30.586C32.8947 30.698 32.7593 30.8427 32.6567 31.02C32.5633 31.188 32.5167 31.3887 32.5167 31.622C32.5167 31.8833 32.568 32.1027 32.6707 32.28C32.7733 32.4573 32.918 32.616 33.1047 32.756C33.2913 32.8867 33.506 33.008 33.7487 33.12C34.0007 33.232 34.276 33.344 34.5747 33.456C34.9947 33.624 35.3773 33.792 35.7227 33.96C36.0773 34.128 36.3807 34.3287 36.6327 34.562C36.894 34.7953 37.0947 35.0753 37.2347 35.402C37.3747 35.7193 37.4447 36.1067 37.4447 36.564C37.4447 37.4133 37.132 38.0667 36.5067 38.524C35.8907 38.9813 35.018 39.21 33.8887 39.21C33.506 39.21 33.1513 39.182 32.8247 39.126C32.5073 39.0793 32.2227 39.0233 31.9707 38.958C31.7187 38.8833 31.4993 38.8087 31.3127 38.734C31.1353 38.65 30.9953 38.58 30.8927 38.524L31.2987 37.404C31.5133 37.5253 31.84 37.6607 32.2787 37.81C32.7173 37.9593 33.254 38.034 33.8887 38.034ZM41.6618 29.2C43.0245 29.2 44.0698 29.4613 44.7978 29.984C45.5352 30.4973 45.9038 31.2673 45.9038 32.294C45.9038 32.854 45.8012 33.3347 45.5958 33.736C45.3998 34.128 45.1105 34.45 44.7278 34.702C44.3545 34.9447 43.8972 35.122 43.3558 35.234C42.8145 35.346 42.2032 35.402 41.5218 35.402H40.4438V39H39.0858V29.438C39.4685 29.3447 39.8932 29.284 40.3598 29.256C40.8358 29.2187 41.2698 29.2 41.6618 29.2ZM41.7738 30.39C41.1952 30.39 40.7518 30.404 40.4438 30.432V34.24H41.4658C41.9325 34.24 42.3525 34.212 42.7258 34.156C43.0992 34.0907 43.4118 33.988 43.6638 33.848C43.9252 33.6987 44.1258 33.498 44.2658 33.246C44.4058 32.994 44.4758 32.672 44.4758 32.28C44.4758 31.9067 44.4012 31.5987 44.2518 31.356C44.1118 31.1133 43.9158 30.922 43.6638 30.782C43.4212 30.6327 43.1365 30.53 42.8098 30.474C42.4832 30.418 42.1378 30.39 41.7738 30.39ZM47.6034 39V29.298H53.5254V30.46H48.9614V33.344H53.0214V34.478H48.9614V37.838H53.8754V39H47.6034ZM60.3475 34.94C60.4968 35.1267 60.6835 35.374 60.9075 35.682C61.1408 35.9807 61.3788 36.3167 61.6215 36.69C61.8641 37.054 62.1021 37.4367 62.3355 37.838C62.5781 38.2393 62.7835 38.6267 62.9515 39H61.4675C61.2808 38.6453 61.0755 38.286 60.8515 37.922C60.6368 37.558 60.4175 37.2127 60.1935 36.886C59.9695 36.55 59.7455 36.2373 59.5215 35.948C59.3068 35.6587 59.1108 35.4067 58.9335 35.192C58.8121 35.2013 58.6861 35.206 58.5555 35.206C58.4341 35.206 58.3081 35.206 58.1775 35.206H56.9595V39H55.6015V29.438C55.9841 29.3447 56.4088 29.284 56.8755 29.256C57.3515 29.2187 57.7855 29.2 58.1775 29.2C59.5401 29.2 60.5761 29.4567 61.2855 29.97C62.0041 30.4833 62.3635 31.2487 62.3635 32.266C62.3635 32.91 62.1908 33.4607 61.8455 33.918C61.5095 34.3753 61.0101 34.716 60.3475 34.94ZM58.2895 30.39C57.7108 30.39 57.2675 30.404 56.9595 30.432V34.086H57.9255C58.3921 34.086 58.8121 34.0627 59.1855 34.016C59.5588 33.9693 59.8715 33.8807 60.1235 33.75C60.3848 33.6193 60.5855 33.4373 60.7255 33.204C60.8655 32.9613 60.9355 32.644 60.9355 32.252C60.9355 31.888 60.8655 31.5847 60.7255 31.342C60.5855 31.0993 60.3941 30.908 60.1515 30.768C59.9181 30.628 59.6381 30.53 59.3115 30.474C58.9941 30.418 58.6535 30.39 58.2895 30.39Z" fill="white"/>
<path d="M16 20H41C46.5228 20 51 15.5228 51 10C51 4.47715 46.5228 0 41 0C35.4772 0 31 4.47715 31 10C31 10.5523 31.4477 11 32 11C32.5523 11 33 10.5523 33 10C33 5.58172 36.5817 2 41 2C45.4183 2 49 5.58172 49 10C49 14.4183 45.4183 18 41 18H16C15.4477 18 15 18.4477 15 19C15 19.5523 15.4477 20 16 20Z" fill="white"/>
</svg>
