<svg width="75" height="69" viewBox="0 0 75 69" fill="none" xmlns="http://www.w3.org/2000/svg">
<g clip-path="url(#clip0)">
<path d="M20.1185 50.9911C19.8499 51.2857 19.5465 51.6151 19.2085 51.9791C18.8705 52.3344 18.5152 52.7027 18.1425 53.0841C17.7785 53.4567 17.4145 53.8251 17.0505 54.1891C16.6865 54.5531 16.3442 54.8911 16.0235 55.2031C16.3962 55.4631 16.7905 55.7837 17.2065 56.1651C17.6225 56.5464 18.0299 56.9537 18.4285 57.3871C18.8272 57.8204 19.1999 58.2624 19.5465 58.7131C19.9019 59.1637 20.1965 59.5927 20.4305 60.0001H18.9485C18.6885 59.5927 18.3895 59.1854 18.0515 58.7781C17.7135 58.3621 17.3539 57.9677 16.9725 57.5951C16.5999 57.2137 16.2185 56.8627 15.8285 56.5421C15.4472 56.2214 15.0745 55.9484 14.7105 55.7231V60.0001H13.4495V50.9911H14.7105V54.9691C15.0139 54.6831 15.3475 54.3624 15.7115 54.0071C16.0755 53.6431 16.4352 53.2791 16.7905 52.9151C17.1459 52.5511 17.4795 52.2044 17.7915 51.8751C18.1122 51.5371 18.3809 51.2424 18.5975 50.9911H20.1185ZM24.9793 60.1951C24.39 60.1951 23.8787 60.1041 23.4453 59.9221C23.012 59.7401 22.6567 59.4931 22.3793 59.1811C22.102 58.8604 21.894 58.4834 21.7553 58.0501C21.6253 57.6167 21.5603 57.1487 21.5603 56.6461V50.9911H22.8213V56.5031C22.8213 57.4044 23.0207 58.0587 23.4193 58.4661C23.818 58.8734 24.338 59.0771 24.9793 59.0771C25.3 59.0771 25.5903 59.0294 25.8503 58.9341C26.119 58.8301 26.3487 58.6741 26.5393 58.4661C26.73 58.2581 26.8773 57.9937 26.9813 57.6731C27.0853 57.3437 27.1373 56.9537 27.1373 56.5031V50.9911H28.3983V56.6461C28.3983 57.1487 28.329 57.6167 28.1903 58.0501C28.0603 58.4834 27.8523 58.8604 27.5663 59.1811C27.289 59.4931 26.9337 59.7401 26.5003 59.9221C26.0757 60.1041 25.5687 60.1951 24.9793 60.1951ZM36.5945 50.9911V52.0831H33.7605V60.0001H32.4995V52.0831H29.6655V50.9911H36.5945ZM43.1072 60.0001C42.9599 59.6101 42.8212 59.2287 42.6912 58.8561C42.5612 58.4747 42.4269 58.0891 42.2882 57.6991H38.2062L37.3872 60.0001H36.0742C36.4209 59.0467 36.7459 58.1671 37.0492 57.3611C37.3525 56.5464 37.6472 55.7751 37.9332 55.0471C38.2279 54.3191 38.5182 53.6257 38.8042 52.9671C39.0902 52.2997 39.3892 51.6411 39.7012 50.9911H40.8582C41.1702 51.6411 41.4692 52.2997 41.7552 52.9671C42.0412 53.6257 42.3272 54.3191 42.6132 55.0471C42.9079 55.7751 43.2069 56.5464 43.5102 57.3611C43.8135 58.1671 44.1385 59.0467 44.4852 60.0001H43.1072ZM41.9242 56.6591C41.6469 55.9051 41.3695 55.1771 41.0922 54.4751C40.8235 53.7644 40.5419 53.0841 40.2472 52.4341C39.9439 53.0841 39.6535 53.7644 39.3762 54.4751C39.1075 55.1771 38.8389 55.9051 38.5702 56.6591H41.9242ZM51.8833 60.0001C51.6927 59.6794 51.4717 59.3197 51.2203 58.9211C50.9777 58.5224 50.7133 58.1107 50.4273 57.6861C50.1413 57.2527 49.8423 56.8151 49.5303 56.3731C49.227 55.9311 48.9237 55.5064 48.6203 55.0991C48.317 54.6831 48.0223 54.2931 47.7363 53.9291C47.4503 53.5651 47.186 53.2444 46.9433 52.9671V60.0001H45.7083V50.9911H46.7093C47.1167 51.4244 47.55 51.9314 48.0093 52.5121C48.4773 53.0841 48.9367 53.6777 49.3873 54.2931C49.8467 54.8997 50.2757 55.4977 50.6743 56.0871C51.0817 56.6764 51.424 57.2007 51.7013 57.6601V50.9911H52.9363V60.0001H51.8833ZM61.1853 60.0001C61.038 59.6101 60.8993 59.2287 60.7693 58.8561C60.6393 58.4747 60.505 58.0891 60.3663 57.6991H56.2843L55.4653 60.0001H54.1523C54.499 59.0467 54.824 58.1671 55.1273 57.3611C55.4307 56.5464 55.7253 55.7751 56.0113 55.0471C56.306 54.3191 56.5963 53.6257 56.8823 52.9671C57.1683 52.2997 57.4673 51.6411 57.7793 50.9911H58.9363C59.2483 51.6411 59.5473 52.2997 59.8333 52.9671C60.1193 53.6257 60.4053 54.3191 60.6913 55.0471C60.986 55.7751 61.285 56.5464 61.5883 57.3611C61.8917 58.1671 62.2167 59.0467 62.5633 60.0001H61.1853ZM60.0023 56.6591C59.725 55.9051 59.4477 55.1771 59.1703 54.4751C58.9017 53.7644 58.62 53.0841 58.3253 52.4341C58.022 53.0841 57.7317 53.7644 57.4543 54.4751C57.1857 55.1771 56.917 55.9051 56.6483 56.6591H60.0023Z" fill="white"/>
<path d="M28.2324 15.2811C40.7039 13.4547 51.4535 16.0823 52.1934 21.137C52.4209 22.6911 51.8144 25.3088 49.3553 27.5723C47.3987 29.3729 42.8583 32.1009 34.4263 30.1432C34.3015 30.1141 34.1766 30.1917 34.1472 30.3168C34.1188 30.4415 34.1948 30.567 34.3215 30.5958C42.9616 32.6028 47.6467 29.7773 49.6702 27.9144C51.8041 25.9503 52.9754 23.2634 52.6541 21.0699C51.8743 15.7604 40.8906 12.9576 28.165 14.8208C20.2349 15.9829 12.5814 20.3306 10.7403 24.7197C10.6991 24.8185 10.7309 24.9295 10.8115 24.9925C10.8276 25.0051 10.8455 25.0154 10.865 25.0236C10.9834 25.0737 11.1199 25.0175 11.1693 24.8992C12.9232 20.7168 20.5778 16.4024 28.2324 15.2811Z" stroke="white"/>
<path d="M46.856 38.6038C54.7864 37.442 62.4403 33.0946 64.2809 28.7062C64.3306 28.5882 64.2764 28.4514 64.1564 28.4019C64.0381 28.3525 63.9019 28.4083 63.8521 28.5264C62.0981 32.7081 54.4439 37.0228 46.7887 38.1442C40.7148 39.034 34.8659 38.8974 30.3187 37.7615C25.8405 36.643 23.1803 34.6992 22.827 32.2883C22.5995 30.7343 23.2062 28.1161 25.6663 25.8523C27.6226 24.0513 32.163 21.3234 40.5935 23.2823C40.7185 23.311 40.8435 23.2334 40.8725 23.1086C40.9015 22.9832 40.8233 22.8583 40.6988 22.8296C32.0594 20.8225 27.3746 23.6476 25.3509 25.5108C23.2169 27.475 22.0454 30.1622 22.3671 32.356C22.5508 33.6121 23.2906 34.7446 24.529 35.7122C25.8649 36.7559 27.7812 37.6071 30.2056 38.2135C34.8108 39.3629 40.7236 39.5022 46.856 38.6038Z" stroke="white"/>
</g>
<defs>
<clipPath id="clip0">
<rect width="75" height="68.0763" fill="white" transform="translate(0 0.923706)"/>
</clipPath>
</defs>
</svg>
