<svg width="67" height="64" viewBox="0 0 67 64" fill="none" xmlns="http://www.w3.org/2000/svg">
<path d="M1.93173 50.489C1.93173 49.7177 2.0444 49.0373 2.26973 48.448C2.50373 47.8587 2.81573 47.369 3.20573 46.979C3.6044 46.5803 4.06373 46.2813 4.58373 46.082C5.1124 45.8827 5.6714 45.783 6.26073 45.783C6.8414 45.783 7.3874 45.8827 7.89873 46.082C8.41873 46.2813 8.87373 46.5803 9.26373 46.979C9.65374 47.369 9.9614 47.8587 10.1867 48.448C10.4207 49.0373 10.5377 49.7177 10.5377 50.489C10.5377 51.165 10.4511 51.7673 10.2777 52.296C10.1044 52.8247 9.86173 53.284 9.54974 53.674C9.2464 54.0553 8.88673 54.3673 8.47074 54.61C8.0634 54.844 7.62573 55.0043 7.15773 55.091C7.1664 55.2903 7.25307 55.4637 7.41773 55.611C7.59107 55.767 7.80773 55.897 8.06773 56.001C8.32773 56.105 8.61807 56.1917 8.93873 56.261C9.2594 56.3303 9.58007 56.3823 9.90073 56.417L9.60173 57.405C9.15107 57.3443 8.71773 57.262 8.30173 57.158C7.8944 57.0627 7.52173 56.9327 7.18373 56.768C6.8544 56.6033 6.57707 56.391 6.35173 56.131C6.1264 55.8797 5.97473 55.5633 5.89673 55.182C5.35073 55.1473 4.83507 55.0217 4.34973 54.805C3.8644 54.5797 3.44407 54.272 3.08873 53.882C2.7334 53.4833 2.45173 53.0023 2.24373 52.439C2.03573 51.8757 1.93173 51.2257 1.93173 50.489ZM3.25773 50.489C3.25773 51.035 3.32707 51.5333 3.46573 51.984C3.6044 52.426 3.7994 52.803 4.05073 53.115C4.31073 53.427 4.62273 53.6697 4.98673 53.843C5.3594 54.0077 5.7754 54.09 6.23473 54.09C6.69407 54.09 7.10573 54.0077 7.46973 53.843C7.83373 53.6697 8.1414 53.427 8.39273 53.115C8.65273 52.803 8.85207 52.426 8.99073 51.984C9.1294 51.5333 9.19873 51.035 9.19873 50.489C9.19873 49.943 9.1294 49.449 8.99073 49.007C8.85207 48.5563 8.65273 48.175 8.39273 47.863C8.1414 47.551 7.83373 47.3127 7.46973 47.148C7.10573 46.9747 6.69407 46.888 6.23473 46.888C5.7754 46.888 5.3594 46.9747 4.98673 47.148C4.62273 47.3127 4.31073 47.551 4.05073 47.863C3.7994 48.175 3.6044 48.5563 3.46573 49.007C3.32707 49.449 3.25773 49.943 3.25773 50.489ZM15.7679 55.195C15.1786 55.195 14.6672 55.104 14.2339 54.922C13.8006 54.74 13.4452 54.493 13.1679 54.181C12.8906 53.8603 12.6826 53.4833 12.5439 53.05C12.4139 52.6167 12.3489 52.1487 12.3489 51.646V45.991H13.6099V51.503C13.6099 52.4043 13.8092 53.0587 14.2079 53.466C14.6066 53.8733 15.1266 54.077 15.7679 54.077C16.0886 54.077 16.3789 54.0293 16.6389 53.934C16.9076 53.83 17.1372 53.674 17.3279 53.466C17.5186 53.258 17.6659 52.9937 17.7699 52.673C17.8739 52.3437 17.9259 51.9537 17.9259 51.503V45.991H19.1869V51.646C19.1869 52.1487 19.1176 52.6167 18.9789 53.05C18.8489 53.4833 18.6409 53.8603 18.3549 54.181C18.0776 54.493 17.7222 54.74 17.2889 54.922C16.8642 55.104 16.3572 55.195 15.7679 55.195ZM27.2561 55C27.1088 54.61 26.9701 54.2287 26.8401 53.856C26.7101 53.4747 26.5758 53.089 26.4371 52.699H22.3551L21.5361 55H20.2231C20.5698 54.0467 20.8948 53.167 21.1981 52.361C21.5015 51.5463 21.7961 50.775 22.0821 50.047C22.3768 49.319 22.6671 48.6257 22.9531 47.967C23.2391 47.2997 23.5381 46.641 23.8501 45.991H25.0071C25.3191 46.641 25.6181 47.2997 25.9041 47.967C26.1901 48.6257 26.4761 49.319 26.7621 50.047C27.0568 50.775 27.3558 51.5463 27.6591 52.361C27.9625 53.167 28.2875 54.0467 28.6341 55H27.2561ZM26.0731 51.659C25.7958 50.905 25.5185 50.177 25.2411 49.475C24.9725 48.7643 24.6908 48.084 24.3961 47.434C24.0928 48.084 23.8025 48.7643 23.5251 49.475C23.2565 50.177 22.9878 50.905 22.7191 51.659H26.0731ZM36.0323 55C35.8416 54.6793 35.6206 54.3197 35.3693 53.921C35.1266 53.5223 34.8623 53.1107 34.5763 52.686C34.2903 52.2527 33.9913 51.815 33.6793 51.373C33.3759 50.931 33.0726 50.5063 32.7693 50.099C32.4659 49.683 32.1713 49.293 31.8853 48.929C31.5993 48.565 31.3349 48.2443 31.0923 47.967V55H29.8573V45.991H30.8583C31.2656 46.4243 31.6989 46.9313 32.1583 47.512C32.6263 48.084 33.0856 48.6777 33.5363 49.293C33.9956 49.8997 34.4246 50.4977 34.8233 51.087C35.2306 51.6763 35.5729 52.2007 35.8503 52.66V45.991H37.0853V55H36.0323ZM45.3343 45.991V47.083H42.5003V55H41.2393V47.083H38.4053V45.991H45.3343ZM50.0199 55.195C49.4305 55.195 48.9192 55.104 48.4859 54.922C48.0525 54.74 47.6972 54.493 47.4199 54.181C47.1425 53.8603 46.9345 53.4833 46.7959 53.05C46.6659 52.6167 46.6009 52.1487 46.6009 51.646V45.991H47.8619V51.503C47.8619 52.4043 48.0612 53.0587 48.4599 53.466C48.8585 53.8733 49.3785 54.077 50.0199 54.077C50.3405 54.077 50.6309 54.0293 50.8909 53.934C51.1595 53.83 51.3892 53.674 51.5799 53.466C51.7705 53.258 51.9179 52.9937 52.0219 52.673C52.1259 52.3437 52.1779 51.9537 52.1779 51.503V45.991H53.4389V51.646C53.4389 52.1487 53.3695 52.6167 53.2309 53.05C53.1009 53.4833 52.8929 53.8603 52.6069 54.181C52.3295 54.493 51.9742 54.74 51.5409 54.922C51.1162 55.104 50.6092 55.195 50.0199 55.195ZM59.659 53.752C59.5724 53.544 59.4554 53.2797 59.308 52.959C59.1694 52.6383 59.0177 52.2917 58.853 51.919C58.6884 51.5463 58.5107 51.165 58.32 50.775C58.138 50.3763 57.9647 50.0037 57.8 49.657C57.6354 49.3017 57.4794 48.9853 57.332 48.708C57.1934 48.4307 57.0807 48.2183 56.994 48.071C56.8987 49.0937 56.8207 50.203 56.76 51.399C56.6994 52.5863 56.6474 53.7867 56.604 55H55.369C55.4037 54.22 55.4427 53.4357 55.486 52.647C55.5294 51.8497 55.577 51.0697 55.629 50.307C55.6897 49.5357 55.7504 48.786 55.811 48.058C55.8804 47.33 55.954 46.641 56.032 45.991H57.137C57.371 46.3723 57.6224 46.823 57.891 47.343C58.1597 47.863 58.4284 48.409 58.697 48.981C58.9657 49.5443 59.2257 50.112 59.477 50.684C59.7284 51.2473 59.958 51.763 60.166 52.231C60.374 51.763 60.6037 51.2473 60.855 50.684C61.1064 50.112 61.3664 49.5443 61.635 48.981C61.9037 48.409 62.1724 47.863 62.441 47.343C62.7097 46.823 62.961 46.3723 63.195 45.991H64.3C64.5947 48.8943 64.8157 51.8973 64.963 55H63.728C63.6847 53.7867 63.6327 52.5863 63.572 51.399C63.5114 50.203 63.4334 49.0937 63.338 48.071C63.2514 48.2183 63.1344 48.4307 62.987 48.708C62.8484 48.9853 62.6967 49.3017 62.532 49.657C62.3674 50.0037 62.1897 50.3763 61.999 50.775C61.817 51.165 61.6437 51.5463 61.479 51.919C61.3144 52.2917 61.1584 52.6383 61.011 52.959C60.8724 53.2797 60.7597 53.544 60.673 53.752H59.659Z" fill="white"/>
<circle cx="32" cy="16" r="14.5" stroke="white" stroke-width="2"/>
<path d="M36 16H55" stroke="white" stroke-width="2" stroke-linecap="round" stroke-linejoin="round"/>
</svg>
