<?xml version="1.0" encoding="utf-8"?>
<!-- Generator: Adobe Illustrator 23.0.0, SVG Export Plug-In . SVG Version: 6.00 Build 0)  -->
<svg version="1.1" id="Layer_1" xmlns="http://www.w3.org/2000/svg" xmlns:xlink="http://www.w3.org/1999/xlink" x="0px" y="0px"
	 viewBox="0 0 1089.1 104.1" style="enable-background:new 0 0 1089.1 104.1;" xml:space="preserve">
<style type="text/css">
	.st0{fill:#1A1A1A;}
	.st1{fill:#343434;}
</style>
<g>
	<g>
		<path class="st0" d="M308.1,20h-27.7v79h-19.7V20H233V4.2h75V20H308.1z"/>
		<path class="st0" d="M401.1,4.1v94.8h-19.7V58.1h-41.7v40.8H320V4.1h19.7v40.2h41.7V4.1C381.4,4.1,401.1,4.1,401.1,4.1z"/>
		<path class="st0" d="M496.5,98.9h-17.7c-3.3,0-5.7-1.3-7.2-3.8l-18-29.1c-0.7-1.1-1.6-2-2.5-2.5s-2.2-0.8-4-0.8h-6.7v36.1h-19.6V4
			h29.8c6.6,0,12.3,0.7,17,2.1s8.6,3.3,11.6,5.7c3,2.4,5.2,5.4,6.6,8.7c1.4,3.4,2.1,7.1,2.1,11.1c0,3.1-0.5,6.1-1.3,8.9
			s-2.2,5.4-3.9,7.7c-1.7,2.3-3.8,4.4-6.3,6.1c-2.5,1.8-5.3,3.2-8.5,4.3c1.3,0.7,2.4,1.5,3.5,2.5s2.1,2.1,2.9,3.5L496.5,98.9z
			 M450.6,49c3.2,0,5.9-0.4,8.2-1.2s4.2-1.9,5.7-3.3c1.5-1.4,2.6-3.1,3.3-5c0.7-1.9,1-4,1-6.3c0-4.5-1.5-8-4.5-10.4
			s-7.5-3.7-13.6-3.7h-10.2v30h10.1V49z"/>
		<path class="st0" d="M525.5,19.5v24.4h31.6v14.8h-31.6v24.9h40.6V99h-60.3V4.2h60.3v15.4L525.5,19.5L525.5,19.5z"/>
		<path class="st0" d="M600.5,19.5v24.4h31.6v14.8h-31.6v24.9h40.6V99h-60.3V4.2h60.3v15.4L600.5,19.5L600.5,19.5z"/>
		<path class="st0" d="M675.5,19.5v26.2h34.1v15.4h-34.1v37.8h-19.7V4.1h60.3v15.4L675.5,19.5L675.5,19.5z"/>
		<path class="st0" d="M820.4,51.5c0,6.9-1.2,13.4-3.5,19.3c-2.3,5.9-5.6,11-9.9,15.4c-4.3,4.3-9.3,7.7-15.3,10.2
			s-12.6,3.7-19.8,3.7c-7.3,0-13.9-1.2-19.8-3.7c-6-2.5-11.1-5.8-15.3-10.2c-4.3-4.3-7.6-9.4-9.9-15.4c-2.3-5.9-3.5-12.3-3.5-19.3
			c0-6.9,1.2-13.3,3.5-19.2s5.6-11,9.9-15.3c4.3-4.3,9.4-7.7,15.3-10.2c6-2.5,12.6-3.7,19.8-3.7c7.3,0,13.9,1.2,19.8,3.7
			c6,2.5,11.1,5.9,15.3,10.2c4.3,4.3,7.5,9.4,9.9,15.3C819.2,38.2,820.4,44.6,820.4,51.5z M800.3,51.5c0-5-0.7-9.4-2-13.4
			c-1.3-3.9-3.2-7.3-5.7-10.1s-5.4-4.9-9-6.3c-3.5-1.5-7.5-2.2-11.9-2.2s-8.4,0.7-12,2.2c-3.5,1.5-6.5,3.6-9,6.3
			c-2.5,2.8-4.3,6.1-5.7,10.1c-1.3,3.9-2,8.4-2,13.4s0.7,9.5,2,13.4s3.2,7.3,5.7,10s5.5,4.8,9,6.3s7.5,2.2,12,2.2s8.4-0.7,11.9-2.2
			s6.5-3.6,9-6.3s4.3-6.1,5.7-10S800.3,56.5,800.3,51.5z"/>
		<path class="st0" d="M891,83v15.9h-56.2V4.1h19.6V83H891z"/>
		<path class="st0" d="M987.9,51.5c0,6.9-1.2,13.3-3.5,19.1s-5.6,10.8-9.9,15c-4.3,4.2-9.3,7.5-15.3,9.8c-6,2.4-12.6,3.5-19.8,3.5
			H903V4.1h36.4c7.3,0,13.9,1.2,19.8,3.5c6,2.4,11.1,5.6,15.3,9.8s7.5,9.2,9.9,15C986.7,38.3,987.9,44.6,987.9,51.5z M967.8,51.5
			c0-5-0.7-9.4-2-13.4s-3.2-7.3-5.6-10.1c-2.4-2.7-5.4-4.8-8.9-6.3s-7.5-2.2-11.9-2.2h-16.7v64.1h16.7c4.4,0,8.4-0.7,11.9-2.2
			s6.5-3.6,8.9-6.3c2.4-2.8,4.3-6.1,5.6-10.1S967.8,56.5,967.8,51.5z"/>
	</g>
</g>
<g>
	<g>
		<path class="st1" d="M204,28.3H93.5V3.1h97.6c7.1,0,12.9,5.8,12.9,12.9V28.3L204,28.3z"/>
		<path class="st0" d="M191.1,3.1H93.5v25.2H204V15.9C204,8.8,198.2,3.1,191.1,3.1L191.1,3.1z"/>
	</g>
	<polygon class="st1" points="204,65 125.9,65 125.9,39.8 204,39.8 	"/>
	<path class="st0" d="M191.1,101.8H93.5V76.6H204v12.3C204,96,198.2,101.8,191.1,101.8L191.1,101.8z"/>
</g>
</svg>
