<svg width="18" height="10" viewBox="0 0 18 10" fill="none" xmlns="http://www.w3.org/2000/svg">
<path d="M1.18616 9.37238H12.6761C15.2666 9.37238 17.372 7.33616 17.372 4.81783C17.372 2.2995 15.2666 0.263281 12.6761 0.263281C10.0855 0.263281 7.9801 2.2995 7.9801 4.81783C7.9801 5.122 8.23361 5.36329 8.5397 5.36329C8.84579 5.36329 9.0993 5.122 9.0993 4.81783C9.0993 2.90784 10.6977 1.35419 12.6761 1.35419C14.6544 1.35419 16.2528 2.90784 16.2528 4.81783C16.2528 6.72782 14.6544 8.28147 12.6761 8.28147H1.18616C0.880071 8.28147 0.626562 8.52276 0.626562 8.82693C0.626562 9.1311 0.880071 9.37238 1.18616 9.37238Z" fill="#5757A4" stroke="#5757A4" stroke-width="0.2"/>
</svg>
