<?xml version="1.0" encoding="UTF-8"?>
<svg id="Layer_2" xmlns="http://www.w3.org/2000/svg" viewBox="0 0 225.22 91.85">
    <g id="Layer_1-2">
        <g>
            <path d="M15.03,75.2c.85,0,1.24,.38,1.24,1.24v1.06c0,.85-.38,1.24-1.24,1.24H4.05v11.37c0,.85-.38,1.24-1.24,1.24H1.23c-.85,0-1.23-.38-1.23-1.24v-27.34c0-.85,.38-1.24,1.23-1.24H18.78c.85,0,1.24,.38,1.24,1.24v1.06c0,.85-.38,1.24-1.24,1.24H4.05v10.14H15.03Z"/>
            <path d="M36.29,80.05c-.72,.04-1.32,.04-2,.04l-5.58,.04v9.97c0,.85-.38,1.24-1.24,1.24h-1.58c-.85,0-1.24-.38-1.24-1.24v-27.34c0-.85,.38-1.24,1.24-1.24h8.86c5.54,0,11.58,1.87,11.58,9.11,0,4.34-2.3,7.37-6.13,8.6l6.01,10.95c.08,.17,.13,.3,.13,.47,0,.38-.3,.68-.81,.68h-2c-.85,0-1.19-.21-1.58-.94l-5.66-10.35Zm-1.02-3.11c3.79-.04,7.16-1.7,7.16-5.96s-3.36-5.96-7.16-6.01h-6.56v11.97h6.56Z"/>
            <path d="M56.56,74.86h10.69c.85,0,1.24,.38,1.24,1.24v.89c0,.85-.38,1.24-1.24,1.24h-10.69v9.67h14.31c.85,0,1.24,.38,1.24,1.24v.98c0,.85-.38,1.24-1.24,1.24h-17.12c-.85,0-1.24-.38-1.24-1.24v-27.34c0-.85,.38-1.24,1.24-1.24h16.7c.85,0,1.24,.38,1.24,1.24v.98c0,.85-.38,1.24-1.24,1.24h-13.88v9.88Z"/>
            <path d="M81.73,74.86h10.69c.85,0,1.23,.38,1.23,1.24v.89c0,.85-.38,1.24-1.23,1.24h-10.69v9.67h14.31c.85,0,1.24,.38,1.24,1.24v.98c0,.85-.38,1.24-1.24,1.24h-17.12c-.85,0-1.23-.38-1.23-1.24v-27.34c0-.85,.38-1.24,1.23-1.24h16.7c.85,0,1.23,.38,1.23,1.24v.98c0,.85-.38,1.24-1.23,1.24h-13.89v9.88Z"/>
            <path d="M118.96,74.35c1.24,0,1.79,.55,1.79,1.79v2.51c0,1.24-.55,1.79-1.79,1.79h-9.58v9.11c0,1.24-.55,1.79-1.79,1.79h-3.54c-1.23,0-1.79-.55-1.79-1.79v-26.24c0-1.24,.55-1.79,1.79-1.79h18.57c1.24,0,1.79,.55,1.79,1.79v2.51c0,1.24-.55,1.79-1.79,1.79h-13.25v6.73h9.58Z"/>
            <path d="M146.39,85.25c1.24,0,1.79,.55,1.79,1.79v2.51c0,1.24-.55,1.79-1.79,1.79h-16.65c-1.24,0-1.79-.55-1.79-1.79v-26.24c0-1.24,.55-1.79,1.79-1.79h3.45c1.23,0,1.79,.55,1.79,1.79v21.94h11.41Z"/>
            <path d="M181.27,76.43c0,8.9-6.77,15.42-16.23,15.42s-16.23-6.52-16.23-15.42,6.82-15.42,16.23-15.42,16.23,6.52,16.23,15.42Zm-7.24,0c0-5.2-3.88-8.9-8.99-8.9s-8.99,3.71-8.99,8.9,3.88,8.9,8.99,8.9,8.99-3.71,8.99-8.9Z"/>
            <path d="M198.95,89.81c-.26,1.11-.81,1.53-1.96,1.53h-4.47c-1.15,0-1.66-.38-2-1.49l-8.48-26.54c-.04-.21-.09-.43-.09-.64,0-.72,.51-1.15,1.41-1.15h4.17c1.15,0,1.66,.43,1.96,1.49l5.41,19.68,4.68-19.64c.26-1.11,.81-1.53,1.92-1.53h4.05c1.19,0,1.7,.43,1.96,1.53l4.64,19.64,5.49-19.68c.3-1.06,.77-1.49,1.96-1.49h4.13c.98,0,1.49,.43,1.49,1.15,0,.21-.04,.43-.13,.64l-8.52,26.54c-.34,1.11-.85,1.49-2,1.49h-4.47c-1.19,0-1.66-.43-1.96-1.53l-4.6-18.78-4.6,18.78Z"/>
        </g>
        <path d="M135.49,0h-45.76c-1.69,0-2.45,.76-2.45,2.45v3.44c0,1.69,.76,2.45,2.45,2.45h17.85v9.22h-12.83c-1.69,0-2.45,.76-2.45,2.45v3.44c0,1.69,.76,2.45,2.45,2.45h12.83v12.49c0,1.69,.76,2.45,2.45,2.45h5.15c1.69,0,2.45-.76,2.45-2.45v-12.49h12.83c1.69,0,2.45-.76,2.45-2.45v-3.44c0-1.69-.76-2.45-2.45-2.45h-12.83V8.35h17.85c1.69,0,2.45-.76,2.45-2.45V2.45c0-1.69-.76-2.45-2.45-2.45Z"/>
    </g>
</svg>