<svg width="65" height="76" viewBox="0 0 65 76" fill="none" xmlns="http://www.w3.org/2000/svg">
<path fill-rule="evenodd" clip-rule="evenodd" d="M33.2851 50C33.0962 49.9513 32.9097 49.8725 32.7184 49.8581C28.8555 49.5673 25.8874 47.7332 23.8194 44.532C22.6795 42.7675 22.1774 40.7557 22.236 38.6274C22.2468 38.234 22.3695 38.1091 22.7567 38.1133C24.1911 38.1293 25.626 38.1322 27.0602 38.1107C27.5042 38.1039 27.6515 38.2562 27.6523 38.6952C27.6557 40.3531 28.2602 41.8056 29.4687 42.9141C31.9947 45.2306 35.7086 44.9076 37.8342 42.4419C38.9323 41.1682 39.2691 39.7074 39.2678 38.0926C39.2644 34.5038 39.288 30.9151 39.3012 27.3265C39.3083 25.4605 39.3393 23.5942 39.3096 21.729C39.3012 21.1997 39.474 21.0837 39.9619 21.0916C41.3705 21.1144 42.7802 21.1049 44.1889 21.0809C44.6053 21.0738 44.7545 21.2096 44.7524 21.6282C44.7251 27.4823 44.7663 33.3377 44.6652 39.1904C44.6184 41.909 43.5164 44.2582 41.6222 46.2713C39.7168 48.2968 37.4225 49.4553 34.688 49.8157C34.2626 49.8717 33.8384 49.9382 33.4136 50H33.2851Z" fill="#E96E3A" stroke="#F3F5FE" stroke-width="3"/>
<path fill-rule="evenodd" clip-rule="evenodd" d="M9.63481 24.2168C10.388 19.4343 14.3384 15.569 19.1447 14.9267C19.7145 14.8508 20.2927 14.8076 20.8665 14.8123C21.017 14.8136 21.2931 15.0492 21.2957 15.1811C21.3252 16.821 21.3149 18.4616 21.3149 20.0984C20.5491 20.2253 19.8125 20.2847 19.1113 20.4742C15.5411 21.4385 13.8017 25.4091 15.607 28.776C16.7734 30.9514 18.7934 31.8147 21.2424 31.7974C25.2797 31.7688 29.3176 31.784 33.3555 31.773C34.8303 31.7688 36.3054 31.7461 37.78 31.722C38.0882 31.717 38.3338 31.7243 38.3288 32.1363C38.3096 33.7333 38.3041 35.3302 38.2897 36.9272C38.2892 36.9853 38.2487 37.0431 38.2014 37.168C36.7457 37.168 35.2746 37.1675 33.8034 37.1683C29.5204 37.1698 25.2374 37.1685 20.9545 37.1753C17.6937 37.1803 14.8796 36.0964 12.6029 33.7461C10.7159 31.7979 9.70128 29.4518 9.51239 26.7492C9.49925 26.5579 9.463 25.0994 9.63481 24.2168Z" fill="#270E54"/>
<path d="M9.63481 24.2168C10.388 19.4343 14.3384 15.569 19.1447 14.9267C19.7145 14.8508 20.2927 14.8076 20.8665 14.8123C21.017 14.8136 21.2931 15.0492 21.2957 15.1811C21.3252 16.821 21.3149 18.4616 21.3149 20.0984C20.5491 20.2253 19.8125 20.2847 19.1113 20.4742C15.5411 21.4385 13.8017 25.4091 15.607 28.776C16.7734 30.9514 18.7934 31.8147 21.2424 31.7974C25.2797 31.7688 29.3176 31.784 33.3555 31.773C34.8303 31.7688 36.3054 31.7461 37.78 31.722C38.0882 31.717 38.3338 31.7243 38.3288 32.1363C38.3096 33.7333 38.3041 35.3302 38.2897 36.9272C38.2892 36.9853 38.2487 37.0431 38.2014 37.168C36.7457 37.168 35.2746 37.1675 33.8034 37.1683C29.5204 37.1698 25.2374 37.1685 20.9545 37.1753C17.6937 37.1803 14.8796 36.0964 12.6029 33.7461C10.7159 31.7979 9.70128 29.4518 9.51239 26.7492C9.49925 26.5579 9.463 25.0994 9.63481 24.2168" stroke="#F3F5FE" stroke-width="3"/>
<path fill-rule="evenodd" clip-rule="evenodd" d="M27.6494 30.7862H22.2486C22.2486 29.8219 22.2479 28.8893 22.2486 27.9567C22.2523 23.1368 22.2263 18.3166 22.2691 13.497C22.3054 9.43326 23.9757 6.1454 27.3828 3.89145C31.0754 1.44826 35.7816 1.32105 39.5996 3.80743C42.9817 6.00981 44.6894 9.20161 44.724 13.2441C44.7256 13.4184 44.5023 13.7446 44.3786 13.7472C42.7337 13.7812 41.0879 13.77 39.4044 13.77C39.3458 13.2512 39.3072 12.7918 39.2407 12.3366C38.6575 8.34071 34.2267 6.1488 30.6223 8.21219C28.4701 9.44426 27.6812 11.4495 27.7046 13.9069C27.7493 18.5692 27.6739 23.2328 27.6502 27.8957C27.6452 28.838 27.6494 29.78 27.6494 30.7862Z" fill="#E96E3A"/>
<path d="M27.6494 30.7862H22.2486C22.2486 29.8219 22.2479 28.8893 22.2486 27.9567C22.2523 23.1368 22.2263 18.3166 22.2691 13.497C22.3054 9.43326 23.9757 6.1454 27.3828 3.89145C31.0754 1.44826 35.7816 1.32105 39.5996 3.80743C42.9817 6.00981 44.6894 9.20161 44.724 13.2441C44.7256 13.4184 44.5023 13.7446 44.3786 13.7472C42.7337 13.7812 41.0879 13.77 39.4044 13.77C39.3458 13.2512 39.3072 12.7918 39.2407 12.3366C38.6575 8.34071 34.2267 6.1488 30.6223 8.21219C28.4701 9.44426 27.6812 11.4495 27.7046 13.9069C27.7493 18.5692 27.6739 23.2328 27.6502 27.8957C27.6452 28.838 27.6494 29.78 27.6494 30.7862" stroke="#F3F5FE" stroke-width="3"/>
<path fill-rule="evenodd" clip-rule="evenodd" d="M45.6551 37.0538C45.6551 35.416 45.6593 33.8204 45.6522 32.2247C45.6504 31.8478 45.8035 31.6931 46.1887 31.6984C48.2728 31.7279 49.9008 30.8029 51.0633 29.1497C52.2562 27.4525 52.4506 25.5556 51.5995 23.6547C50.5281 21.2626 48.5946 20.1386 45.9785 20.1446C40.5533 20.1572 35.1278 20.1656 29.7025 20.1755C29.3836 20.176 29.0647 20.1755 28.7021 20.1755V14.7743C30.1308 14.7743 31.5126 14.779 32.8942 14.7732C36.9423 14.7562 40.9902 14.73 45.0383 14.7169C47.1478 14.7104 49.2148 14.8557 51.1768 15.8032C55.0772 17.6868 57.7771 21.9667 57.4768 26.4199C57.202 30.4935 55.2109 33.4613 51.8677 35.6016C50.1535 36.6991 48.1819 37.0742 46.1582 37.1441C45.9961 37.1496 45.8317 37.087 45.6551 37.0538Z" fill="#270E54"/>
<path d="M45.6551 37.0538C45.6551 35.416 45.6593 33.8204 45.6522 32.2247C45.6504 31.8478 45.8035 31.6931 46.1887 31.6984C48.2728 31.7279 49.9008 30.8029 51.0633 29.1497C52.2562 27.4525 52.4506 25.5556 51.5995 23.6547C50.5281 21.2626 48.5946 20.1386 45.9785 20.1446C40.5533 20.1572 35.1278 20.1656 29.7025 20.1755C29.3836 20.176 29.0647 20.1755 28.7021 20.1755V14.7743C30.1308 14.7743 31.5126 14.779 32.8942 14.7732C36.9423 14.7562 40.9902 14.73 45.0383 14.7169C47.1478 14.7104 49.2148 14.8557 51.1768 15.8032C55.0772 17.6868 57.7771 21.9667 57.4768 26.4199C57.202 30.4935 55.2109 33.4613 51.8677 35.6016C50.1535 36.6991 48.1819 37.0742 46.1582 37.1441C45.9961 37.1496 45.8317 37.087 45.6551 37.0538" stroke="#F3F5FE" stroke-width="3"/>
<path d="M10.2445 58.9091V67.4489C10.2445 69.3665 8.92773 70.7472 6.74166 70.7472C4.55558 70.7472 3.23881 69.3665 3.23881 67.4489V58.9091H1.65359V67.5767C1.65359 70.2614 3.66069 72.2301 6.74166 72.2301C9.82262 72.2301 11.8297 70.2614 11.8297 67.5767V58.9091H10.2445ZM14.9954 72H16.5806V66.1449H23.5607V72H25.146V58.9091H23.5607V64.7386H16.5806V58.9091H14.9954V72ZM36.9105 58.9091V67.4489C36.9105 69.3665 35.5938 70.7472 33.4077 70.7472C31.2216 70.7472 29.9048 69.3665 29.9048 67.4489V58.9091H28.3196V67.5767C28.3196 70.2614 30.3267 72.2301 33.4077 72.2301C36.4886 72.2301 38.4957 70.2614 38.4957 67.5767V58.9091H36.9105ZM41.6614 72H43.2466V66.8864H46.1103C46.2253 66.8864 46.334 66.8864 46.4426 66.88L49.204 72H51.0449L48.0854 66.5923C49.7537 66.0234 50.5336 64.6619 50.5336 62.9233C50.5336 60.6094 49.1529 58.9091 46.0847 58.9091H41.6614V72ZM43.2466 65.4545V60.3153H46.0336C48.1557 60.3153 48.9739 61.3509 48.9739 62.9233C48.9739 64.4957 48.1557 65.4545 46.0591 65.4545H43.2466ZM61.766 58.9091V67.4489C61.766 69.3665 60.4492 70.7472 58.2631 70.7472C56.0771 70.7472 54.7603 69.3665 54.7603 67.4489V58.9091H53.1751V67.5767C53.1751 70.2614 55.1822 72.2301 58.2631 72.2301C61.3441 72.2301 63.3512 70.2614 63.3512 67.5767V58.9091H61.766Z" fill="#270E54"/>
</svg>
